<?xml version="1.0" encoding="UTF-8" standalone="no"?>
<svg
   xmlns:dc="http://purl.org/dc/elements/1.1/"
   xmlns:cc="http://creativecommons.org/ns#"
   xmlns:rdf="http://www.w3.org/1999/02/22-rdf-syntax-ns#"
   xmlns:svg="http://www.w3.org/2000/svg"
   xmlns="http://www.w3.org/2000/svg"
   xmlns:sodipodi="http://sodipodi.sourceforge.net/DTD/sodipodi-0.dtd"
   xmlns:inkscape="http://www.inkscape.org/namespaces/inkscape"
   version="1.1"
   id="svg28"
   xml:space="preserve"
   width="1147.8375"
   height="867.23724"
   viewBox="0 0 1147.8375 867.23724"
   sodipodi:docname="BoatLogo.svg"
   inkscape:version="1.0 (4035a4f, 2020-05-01)"><metadata
     id="metadata34"><rdf:RDF><cc:Work
         rdf:about=""><dc:format>image/svg+xml</dc:format><dc:type
           rdf:resource="http://purl.org/dc/dcmitype/StillImage" /><dc:title></dc:title></cc:Work></rdf:RDF></metadata><defs
     id="defs32"><clipPath
       clipPathUnits="userSpaceOnUse"
       id="clipPath44"><path
         d="M 0,1080 H 1920 V 0 H 0 Z"
         id="path42" /></clipPath><clipPath
       clipPathUnits="userSpaceOnUse"
       id="clipPath70"><path
         d="M 0,1080 H 1920 V 0 H 0 Z"
         id="path68" /></clipPath><clipPath
       clipPathUnits="userSpaceOnUse"
       id="clipPath80"><path
         d="M 0,1080 H 1920 V 0 H 0 Z"
         id="path78" /></clipPath></defs><sodipodi:namedview
     fit-margin-bottom="0"
     fit-margin-right="0"
     fit-margin-left="0"
     fit-margin-top="-0.5"
     inkscape:pagecheckerboard="false"
     inkscape:document-rotation="0"
     pagecolor="#ffffff"
     bordercolor="#666666"
     borderopacity="1"
     objecttolerance="10"
     gridtolerance="10"
     guidetolerance="10"
     inkscape:pageopacity="0"
     inkscape:pageshadow="2"
     inkscape:window-width="1440"
     inkscape:window-height="781"
     id="namedview30"
     showgrid="false"
     inkscape:zoom="0.66071886"
     inkscape:cx="573.91876"
     inkscape:cy="433.61862"
     inkscape:window-x="0"
     inkscape:window-y="23"
     inkscape:window-maximized="0"
     inkscape:current-layer="g36" /><g
     id="g36"
     inkscape:groupmode="layer"
     inkscape:label="Boat Logo"
     transform="matrix(1.3333333,0,0,-1.3333333,-706.08172,1187.288)"><g
       id="g64"><g
         id="g66"
         clip-path="url(#clipPath70)"><path
           d="M 2081.429,-56.5 H -13.214 v 1173.214 h 2094.643 z"
           style="fill:none;stroke:#000000;stroke-width:1;stroke-linecap:butt;stroke-linejoin:miter;stroke-miterlimit:10;stroke-dasharray:none;stroke-opacity:1"
           id="path72" /></g></g><g
       id="g74"><g
         id="g76"
         clip-path="url(#clipPath80)"><g
           id="g82"
           transform="translate(796.6875,847.73)"><path
             d="m 0,0 c 29.443,-1.508 74.198,0.501 122.623,20.763 16.274,6.81 30.377,14.598 42.364,22.348 13.715,-7.786 35.568,-22.562 54.196,-48.079 22.546,-30.886 28.317,-60.996 31.784,-80.239 8.118,-45.072 0.739,-80.577 -6.3,-112.842 -5.758,-26.391 -16.829,-64.062 -39.668,-106.008 L 51.716,-336.151 c 12.646,26.889 29.182,71.802 29.219,128.704 C 81.004,-97.242 19.13,-21.671 0,0"
             style="fill:#b31b1b;fill-opacity:1;fill-rule:nonzero;stroke:none"
             id="path84" /></g><g
           id="g86"
           transform="translate(776.502,730.833)"><path
             d="m 0,0 c 13.414,-19.673 36.9,-59.8 43.822,-116.019 6.06,-49.225 -3.269,-88.941 -10.207,-110.987 l -53.225,-10.01 -63.309,-12.082 c 14.111,20.987 28.643,46.073 41.576,75.354 C -11.635,-106.482 -2.461,-44.475 0,0"
             style="fill:#b31b1b;fill-opacity:1;fill-rule:nonzero;stroke:none"
             id="path88" /></g><g
           id="g90"
           transform="translate(1377.6553,612.2319)"><path
             d="m 0,0 c -42.299,77.148 -173.325,73.293 -224.495,71.788 -30.753,-0.906 -59.994,-4.65 -86.819,-10.022 -1.53,-8.36 -3.268,-16.436 -4.987,-24.317 -2.132,-9.771 -4.995,-21.092 -8.911,-33.599 24.984,-0.111 52.85,-1.469 83.232,-4.985 89.641,-10.375 108.283,-28.755 114.73,-44.267 14.911,-35.872 -23.951,-83.911 -30.265,-91.715 -29.417,-36.364 -70.464,-54.206 -83.69,-59.837 -146.002,-62.169 -294.556,-92.865 -294.556,-92.865 -110.27,-28.185 -178.745,-29.266 -221.926,-24.118 -10.957,1.307 -90.407,11.375 -90.407,11.375 16.059,-9.979 40.447,-23.785 71.739,-36.345 73.676,-29.572 143.063,-35.149 214.643,-32.812 76.544,2.499 335.718,20.124 492.356,156.82 42.668,37.236 67.601,74.327 76.839,117.407 C 10.858,-81.755 20.683,-37.722 0,0"
             style="fill:#65c8d0;fill-opacity:1;fill-rule:nonzero;stroke:none"
             id="path92" /></g><g
           id="g94"
           transform="translate(719.0962,319.1621)"><path
             d="m 0,0 c 33.764,3.681 74.224,10.835 122.798,23.251 0,0 121.229,25.053 252.29,75.725 34.189,41.062 70.173,84.281 100.775,121.035 L -113.784,103.678 C -82.381,55.191 -40.12,21.879 0,0"
             style="fill:#001436;fill-opacity:1;fill-rule:nonzero;stroke:none"
             id="path96" /></g></g></g></g></svg>
