<?xml version="1.0" encoding="UTF-8" standalone="no"?>
<svg
   xmlns:dc="http://purl.org/dc/elements/1.1/"
   xmlns:cc="http://creativecommons.org/ns#"
   xmlns:rdf="http://www.w3.org/1999/02/22-rdf-syntax-ns#"
   xmlns:svg="http://www.w3.org/2000/svg"
   xmlns="http://www.w3.org/2000/svg"
   xmlns:sodipodi="http://sodipodi.sourceforge.net/DTD/sodipodi-0.dtd"
   xmlns:inkscape="http://www.inkscape.org/namespaces/inkscape"
   inkscape:version="1.0 (4035a4f, 2020-05-01)"
   sodipodi:docname="ColorOval.svg"
   viewBox="0 0 1055.0786 576.24268"
   height="576.24268"
   width="1055.0786"
   xml:space="preserve"
   id="svg10"
   version="1.1"><metadata
     id="metadata16"><rdf:RDF><cc:Work
         rdf:about=""><dc:format>image/svg+xml</dc:format><dc:type
           rdf:resource="http://purl.org/dc/dcmitype/StillImage" /><dc:title></dc:title></cc:Work></rdf:RDF></metadata><defs
     id="defs14"><clipPath
       id="clipPath26"
       clipPathUnits="userSpaceOnUse"><path
         id="path24"
         d="M 0,522.607 H 1716.674 V 0 H 0 Z" /></clipPath><clipPath
       id="clipPath46"
       clipPathUnits="userSpaceOnUse"><path
         id="path44"
         d="m 371.602,315.676 c 0,-16.53 10.753,-26.904 23.093,-31.828 v 0 l 14.278,-5.978 c 9.696,-3.87 15.513,-5.627 15.513,-11.078 v 0 c 0,-5.1 -3.877,-8.09 -13.044,-8.09 v 0 c -8.462,0 -18.687,4.572 -26.796,11.078 v 0 l -17.275,-20.749 c 12.34,-11.078 28.91,-16.353 43.366,-16.353 v 0 c 28.557,0 44.775,17.232 44.775,36.575 v 0 c 0,15.826 -8.108,25.673 -22.388,31.3 v 0 l -13.926,5.451 c -10.401,4.045 -16.923,5.979 -16.923,11.43 v 0 c 0,5.1 4.583,7.737 11.987,7.737 v 0 c 8.462,0 15.16,-2.814 22.917,-8.264 v 0 l 15.16,18.991 c -10.577,10.374 -25.032,15.298 -38.077,15.298 v 0 c -25.032,0 -42.66,-16.002 -42.66,-35.52 m -258,-24.619 c 0,-39.036 25.384,-58.379 54.647,-58.379 v 0 c 14.807,0 28.028,5.627 37.724,16.88 v 0 l -15.865,18.992 c -4.937,-5.276 -11.987,-9.848 -20.802,-9.848 v 0 c -14.808,0 -24.679,11.958 -24.679,33.411 v 0 c 0,20.749 11.635,33.058 25.032,33.058 v 0 c 7.756,0 13.397,-3.516 19.039,-8.44 v 0 l 15.865,19.342 c -8.109,8.09 -20.449,15.123 -35.609,15.123 v 0 c -28.91,0 -55.352,-21.804 -55.352,-60.139 m 570.079,58.029 V 234.787 h 73.687 v 25.322 h -43.366 v 88.977 z M 610.915,234.787 h 30.321 v 114.298 h -30.321 z m -99.56,114.299 -34.904,-114.299 h 31.026 l 3.247,13.831 -5.624,4.387 -6.157,8.153 62.857,6.293 -15.484,-14.828 4.526,-17.836 h 32.083 l -34.903,114.299 z m -207.936,0 v -62.6 c 0,-20.398 -5.641,-27.784 -17.629,-27.784 v 0 c -11.987,0 -17.275,7.386 -17.275,27.784 v 0 62.6 h -30.32 v -59.083 c 0,-39.038 15.512,-57.325 47.595,-57.325 v 0 c 32.084,0 46.892,18.287 46.892,57.325 v 0 59.083 z" /></clipPath><clipPath
       id="clipPath70"
       clipPathUnits="userSpaceOnUse"><path
         id="path68"
         d="M 0,522.607 H 1716.674 V 0 H 0 Z" /></clipPath></defs><sodipodi:namedview
     inkscape:current-layer="g18"
     inkscape:window-maximized="0"
     inkscape:window-y="23"
     inkscape:window-x="0"
     inkscape:cy="285.12812"
     inkscape:cx="1088.5605"
     inkscape:zoom="0.47927092"
     fit-margin-bottom="0"
     fit-margin-right="0"
     fit-margin-left="0"
     fit-margin-top="0"
     showgrid="false"
     id="namedview12"
     inkscape:window-height="784"
     inkscape:window-width="1440"
     inkscape:pageshadow="2"
     inkscape:pageopacity="0"
     guidetolerance="10"
     gridtolerance="10"
     objecttolerance="10"
     borderopacity="1"
     bordercolor="#666666"
     pagecolor="#ffffff" /><g
     transform="matrix(1.3333333,0,0,-1.3333333,-55.886132,633.53278)"
     inkscape:label="Oval Logo"
     inkscape:groupmode="layer"
     id="g18"><g
       id="g20"><g
         clip-path="url(#clipPath26)"
         id="g22"><g
           transform="translate(1630.5492,261.3032)"
           id="g28" /><g
           transform="translate(833.2236,259.0586)"
           id="g32"><path
             id="path34"
             style="fill:#001436;fill-opacity:1;fill-rule:nonzero;stroke:none"
             d="m 0,0 c 0,-119.344 -177.14,-216.091 -395.654,-216.091 -218.514,0 -395.655,96.747 -395.655,216.091 0,119.344 177.141,216.091 395.655,216.091 C -177.14,216.091 0,119.344 0,0" /></g><g
           transform="translate(683.6816,349.0859)"
           id="g36"><path
             id="path38"
             style="fill:#ffffff;fill-opacity:1;fill-rule:nonzero;stroke:none"
             d="m 0,0 h 30.321 v -88.977 h 43.365 v -25.321 H 0 Z m -72.766,0 h 30.321 v -114.298 h -30.321 z m -100.192,-100.468 -3.247,-13.83 H -207.23 L -172.327,0 h 36.667 l 34.904,-114.298 h -32.083 l -4.527,17.835 15.485,14.828 -62.858,-6.293 6.157,-8.153 5.624,-4.387 m -143.353,0.413 17.276,20.75 c 8.109,-6.507 18.334,-11.078 26.795,-11.078 9.167,0 13.045,2.989 13.045,8.089 0,5.451 -5.817,7.209 -15.513,11.078 l -14.279,5.978 c -12.34,4.924 -23.093,15.299 -23.093,31.828 0,19.518 17.628,35.52 42.661,35.52 13.044,0 27.5,-4.923 38.076,-15.298 l -15.16,-18.991 c -7.756,5.451 -14.455,8.264 -22.916,8.264 -7.404,0 -11.988,-2.637 -11.988,-7.737 0,-5.451 6.523,-7.385 16.924,-11.43 l 13.926,-5.451 c 14.279,-5.627 22.388,-15.474 22.388,-31.3 0,-19.342 -16.219,-36.575 -44.776,-36.575 -14.455,0 -31.026,5.275 -43.366,16.353 m -129.176,40.972 V 0 h 30.32 v -62.6 c 0,-20.398 5.289,-27.783 17.276,-27.783 11.987,0 17.628,7.385 17.628,27.783 V 0 H -351 v -59.083 c 0,-39.038 -14.808,-57.325 -46.891,-57.325 -32.083,0 -47.596,18.287 -47.596,57.325 m -124.593,1.055 c 0,38.334 26.442,60.138 55.352,60.138 15.161,0 27.5,-7.033 35.609,-15.122 l -15.865,-19.343 c -5.641,4.923 -11.282,8.44 -19.038,8.44 -13.398,0 -25.032,-12.309 -25.032,-33.058 0,-21.453 9.871,-33.41 24.679,-33.41 8.814,0 15.865,4.571 20.801,9.847 l 15.866,-18.991 c -9.696,-11.254 -22.917,-16.881 -37.725,-16.881 -29.262,0 -54.647,19.343 -54.647,58.38" /></g></g></g><g
       id="g40"><g
         clip-path="url(#clipPath46)"
         id="g42"><g
           transform="translate(300.2031,252.9599)"
           id="g48"><path
             id="path50"
             style="fill:#65c8d0;fill-opacity:1;fill-rule:nonzero;stroke:none"
             d="M 0,0 C 1.648,-0.848 4.942,-2.271 9.347,-2.371 14.306,-2.483 18.01,-0.858 19.68,0 c 1.121,-0.687 2.752,-1.483 4.839,-1.879 5.326,-1.011 9.626,1.338 10.867,2.076 0.916,-0.702 2.521,-1.724 4.754,-2.173 4.746,-0.953 8.522,1.456 9.299,1.976 0.883,-0.583 1.731,-0.95 2.48,-1.186 5.59,-1.759 11.052,2.087 11.987,2.766 0.536,-0.412 1.366,-0.925 2.48,-1.185 3.052,-0.715 5.585,1.084 5.993,1.383 0.432,-0.846 1.539,-2.684 3.72,-3.556 3.237,-1.295 7.544,0.058 10.333,3.556 1.368,-1.495 3.324,-3.12 5.993,-4.149 9.671,-3.728 19.508,3.915 20.046,4.346 1.343,-1.427 2.72,-2.35 3.927,-2.963 9.199,-4.675 20.639,2.478 21.7,3.161 0.775,-1.026 1.611,-1.62 2.273,-1.976 3.071,-1.651 7.4,-0.869 11.16,1.778 0.986,-0.977 3.306,-2.983 6.82,-3.556 4.761,-0.775 9.77,1.399 13.019,5.532 0.475,-0.967 1.048,-1.743 1.653,-2.371 6.148,-6.379 19.892,-1.976 21.08,-1.58 1.183,-0.664 2.933,-1.444 5.167,-1.778 5.171,-0.774 9.23,1.398 10.54,2.173 0.662,-0.622 2.511,-2.187 5.373,-2.568 4.45,-0.593 7.624,2.175 8.06,2.568 1.063,-0.553 2.529,-1.14 4.34,-1.383 5.209,-0.7 9.241,1.985 10.333,2.766 0.462,-0.383 1.843,-1.424 3.926,-1.581 2.544,-0.192 4.333,1.07 4.753,1.383 0.409,-0.494 2.37,-2.751 5.787,-3.161 4.395,-0.527 7.357,2.464 7.646,2.766 1.625,-1.298 5.025,-3.631 9.92,-4.346 9.114,-1.332 15.861,4.044 16.947,4.939 1.692,-1.488 3.362,-2.394 4.753,-2.964 9.28,-3.8 19.046,2.084 20.459,2.964 0.668,-0.66 2.124,-1.903 4.34,-2.371 4.581,-0.968 8.153,2.269 8.473,2.568 0.918,-0.889 3.881,-3.53 8.474,-3.951 7.451,-0.682 12.271,5.115 12.606,5.532 0.032,-0.237 0.233,-1.526 1.447,-2.371 1.566,-1.09 3.386,-0.443 3.513,-0.395 l -1.255,-162.278 H -2.433" /></g><g
           transform="translate(642.706,252.9599)"
           id="g52"><path
             id="path54"
             style="fill:#65c8d0;fill-opacity:1;fill-rule:nonzero;stroke:none"
             d="M 0,0 C 1.648,-0.848 4.942,-2.271 9.347,-2.371 14.306,-2.483 18.01,-0.858 19.68,0 c 1.122,-0.687 2.752,-1.483 4.84,-1.879 5.325,-1.011 9.625,1.338 10.866,2.076 0.916,-0.702 2.521,-1.724 4.754,-2.173 4.747,-0.953 8.522,1.456 9.299,1.976 0.883,-0.583 1.731,-0.95 2.48,-1.186 5.59,-1.759 11.052,2.087 11.987,2.766 0.536,-0.412 1.366,-0.925 2.48,-1.185 3.052,-0.715 5.585,1.084 5.993,1.383 0.432,-0.846 1.54,-2.684 3.72,-3.556 3.237,-1.295 7.545,0.058 10.333,3.556 1.368,-1.495 3.325,-3.12 5.993,-4.149 9.671,-3.728 19.508,3.915 20.047,4.346 1.342,-1.427 2.719,-2.35 3.926,-2.963 9.2,-4.675 20.639,2.478 21.7,3.161 0.775,-1.026 1.611,-1.62 2.273,-1.976 3.071,-1.651 7.4,-0.869 11.16,1.778 0.987,-0.977 3.306,-2.983 6.82,-3.556 4.761,-0.775 9.77,1.399 13.019,5.532 0.475,-0.967 1.048,-1.743 1.653,-2.371 6.148,-6.379 19.892,-1.976 21.08,-1.58 1.183,-0.664 2.934,-1.444 5.167,-1.778 5.171,-0.774 9.23,1.398 10.54,2.173 0.662,-0.622 2.511,-2.187 5.373,-2.568 4.449,-0.593 7.624,2.175 8.06,2.568 1.063,-0.553 2.529,-1.14 4.34,-1.383 5.209,-0.7 9.242,1.985 10.333,2.766 0.462,-0.383 1.842,-1.424 3.926,-1.581 2.544,-0.192 4.333,1.07 4.753,1.383 0.409,-0.494 2.37,-2.751 5.787,-3.161 4.395,-0.527 7.358,2.464 7.647,2.766 1.624,-1.298 5.023,-3.631 9.92,-4.346 9.113,-1.332 15.859,4.044 16.946,4.939 1.692,-1.488 3.361,-2.394 4.753,-2.964 9.28,-3.8 19.046,2.084 20.46,2.964 0.667,-0.66 2.123,-1.903 4.34,-2.371 4.58,-0.968 8.152,2.269 8.472,2.568 0.918,-0.889 3.881,-3.53 8.474,-3.951 7.451,-0.682 12.272,5.115 12.606,5.532 0.033,-0.237 0.233,-1.526 1.447,-2.371 1.566,-1.09 3.386,-0.443 3.513,-0.395 -0.418,-54.093 -0.836,-108.186 -1.255,-162.278 H -2.433" /></g><g
           transform="translate(20.2226,250.9077)"
           id="g56"><path
             id="path58"
             style="fill:#65c8d0;fill-opacity:1;fill-rule:nonzero;stroke:none"
             d="m 0,0 c 1.608,-0.827 4.824,-2.216 9.124,-2.314 4.84,-0.11 8.456,1.476 10.086,2.314 1.095,-0.671 2.686,-1.447 4.724,-1.834 5.198,-0.987 9.395,1.306 10.607,2.027 0.894,-0.686 2.461,-1.684 4.64,-2.121 4.633,-0.93 8.319,1.421 9.077,1.928 0.862,-0.568 1.69,-0.926 2.421,-1.157 5.457,-1.718 10.788,2.037 11.7,2.7 0.524,-0.402 1.334,-0.903 2.421,-1.157 2.979,-0.698 5.452,1.057 5.85,1.35 0.422,-0.826 1.503,-2.62 3.631,-3.471 3.16,-1.265 7.365,0.056 10.087,3.471 1.336,-1.46 3.245,-3.046 5.85,-4.05 9.439,-3.639 19.041,3.821 19.567,4.242 1.311,-1.392 2.654,-2.293 3.833,-2.892 8.98,-4.563 20.146,2.419 21.181,3.085 0.757,-1.001 1.574,-1.581 2.22,-1.928 2.997,-1.611 7.224,-0.848 10.893,1.735 0.963,-0.954 3.227,-2.912 6.657,-3.47 4.647,-0.758 9.537,1.365 12.708,5.398 0.464,-0.943 1.023,-1.7 1.614,-2.313 6.001,-6.227 19.417,-1.929 20.576,-1.543 1.155,-0.647 2.864,-1.409 5.044,-1.735 5.047,-0.756 9.01,1.364 10.288,2.121 0.647,-0.607 2.451,-2.135 5.244,-2.507 4.344,-0.578 7.443,2.123 7.868,2.507 1.038,-0.54 2.469,-1.113 4.236,-1.35 5.086,-0.683 9.021,1.938 10.087,2.7 0.451,-0.374 1.799,-1.39 3.832,-1.543 2.484,-0.188 4.23,1.044 4.64,1.35 0.399,-0.482 2.314,-2.686 5.649,-3.085 4.29,-0.515 7.181,2.404 7.463,2.699 1.586,-1.267 4.905,-3.544 9.683,-4.242 8.896,-1.3 15.482,3.947 16.542,4.821 1.653,-1.453 3.282,-2.337 4.64,-2.893 9.059,-3.71 18.591,2.034 19.971,2.893 0.652,-0.645 2.073,-1.857 4.236,-2.314 4.471,-0.945 7.958,2.214 8.271,2.506 0.896,-0.868 3.788,-3.446 8.271,-3.856 7.273,-0.666 11.978,4.992 12.305,5.399 0.032,-0.23 0.227,-1.489 1.412,-2.314 1.529,-1.064 3.305,-0.432 3.43,-0.386 -0.409,-52.801 -0.817,-105.602 -1.226,-158.402 H -2.375" /></g></g></g><text
       id="text62"
       style="font-variant:normal;font-weight:600;font-stretch:normal;font-size:39.9953px;font-family:'Open Sans SemiBold';-inkscape-font-specification:OpenSans-SemiBold;writing-mode:lr-tb;fill:#ffffff;fill-opacity:1;fill-rule:nonzero;stroke:none"
       transform="matrix(0.95037917,0,0,-1,111.3252,183.1123)"><tspan
         id="tspan60"
         sodipodi:role="line"
         y="0"
         x="0 25.357019 49.794147 67.03212 92.429138 115.46643 126.62512 137.78381 148.18259 174.61948 200.01649 215.73465 240.17178 265.56879 290.00592 328.24142 352.67856 378.07556 397.55328 407.95206 429.94946 453.14676 464.30545 475.46411 500.3812 524.8183 548.01562 563.73376 574.13251 596.7699 619.80719 643.00446">Cornell Autonomous Sailboat Team</tspan></text><g
       id="g64"><g
         clip-path="url(#clipPath70)"
         id="g66"><g
           transform="translate(498.9428,261.1577)"
           id="g72"><path
             id="path74"
             style="fill:#001436;fill-opacity:1;fill-rule:nonzero;stroke:none"
             d="M 0,0 62.857,6.293 C 58.847,2.322 54.042,-2.436 49.634,-6.8 c -9.807,-7.978 -17.569,-8.371 -17.569,-8.371 0,0 -9.92,-1.918 -13.138,-0.83 C 13.614,-14.206 4.868,-9.326 0,0" /></g><g
           transform="translate(518.8793,307.6279)"
           id="g76"><path
             id="path78"
             style="fill:#b31b1b;fill-opacity:1;fill-rule:nonzero;stroke:none"
             d="m 0,0 c 3.289,-0.473 8.329,-0.689 13.958,1.187 1.892,0.631 3.55,1.398 4.97,2.182 1.463,-1.047 3.771,-2.992 5.614,-6.157 2.229,-3.831 2.584,-7.402 2.787,-9.683 0.473,-5.341 -0.7,-9.41 -1.802,-13.104 -0.902,-3.022 -2.51,-7.306 -5.479,-11.971 L 4.357,-39.519 c 1.264,3.467 2.601,8.44 2.71,14.496 C 7.284,-12.845 2.395,-3.83 0,0" /></g><g
           transform="translate(513.478,293.3784)"
           id="g80"><path
             id="path82"
             style="fill:#b31b1b;fill-opacity:1;fill-rule:nonzero;stroke:none"
             d="M 0,0 C 1.314,-2.332 3.56,-7.049 3.792,-13.408 3.994,-18.975 2.563,-23.33 1.571,-25.729 l -6.069,-0.606 -7.219,-0.74 c 1.786,2.212 3.66,4.879 5.395,8.031 C -2.337,-11.804 -0.707,-4.954 0,0" /></g></g></g></g></svg>
