<?xml version="1.0" encoding="UTF-8" standalone="no"?>
<svg
   xmlns:dc="http://purl.org/dc/elements/1.1/"
   xmlns:cc="http://creativecommons.org/ns#"
   xmlns:rdf="http://www.w3.org/1999/02/22-rdf-syntax-ns#"
   xmlns:svg="http://www.w3.org/2000/svg"
   xmlns="http://www.w3.org/2000/svg"
   xmlns:sodipodi="http://sodipodi.sourceforge.net/DTD/sodipodi-0.dtd"
   xmlns:inkscape="http://www.inkscape.org/namespaces/inkscape"
   inkscape:version="1.0 (4035a4f, 2020-05-01)"
   sodipodi:docname="MonocolorOval.svg"
   viewBox="0 0 1055.0773 576.24134"
   height="576.24133"
   width="1055.0773"
   xml:space="preserve"
   id="svg10"
   version="1.1"><metadata
     id="metadata16"><rdf:RDF><cc:Work
         rdf:about=""><dc:format>image/svg+xml</dc:format><dc:type
           rdf:resource="http://purl.org/dc/dcmitype/StillImage" /><dc:title></dc:title></cc:Work></rdf:RDF></metadata><defs
     id="defs14"><clipPath
       id="clipPath26"
       clipPathUnits="userSpaceOnUse"><path
         id="path24"
         d="M 0,522.607 H 1716.674 V 0 H 0 Z" /></clipPath><clipPath
       id="clipPath46"
       clipPathUnits="userSpaceOnUse"><path
         id="path44"
         d="m 371.602,315.676 c 0,-16.53 10.753,-26.904 23.093,-31.828 v 0 l 14.278,-5.978 c 9.696,-3.87 15.513,-5.627 15.513,-11.078 v 0 c 0,-5.1 -3.877,-8.09 -13.044,-8.09 v 0 c -8.462,0 -18.687,4.572 -26.796,11.078 v 0 l -17.275,-20.749 c 12.34,-11.078 28.91,-16.353 43.366,-16.353 v 0 c 28.557,0 44.775,17.232 44.775,36.575 v 0 c 0,15.826 -8.108,25.673 -22.388,31.3 v 0 l -13.926,5.451 c -10.401,4.045 -16.923,5.979 -16.923,11.43 v 0 c 0,5.1 4.583,7.737 11.987,7.737 v 0 c 8.462,0 15.16,-2.814 22.917,-8.264 v 0 l 15.16,18.991 c -10.577,10.374 -25.032,15.298 -38.077,15.298 v 0 c -25.032,0 -42.66,-16.002 -42.66,-35.52 m -258,-24.619 c 0,-39.036 25.384,-58.379 54.647,-58.379 v 0 c 14.807,0 28.028,5.627 37.724,16.88 v 0 l -15.865,18.992 c -4.937,-5.276 -11.987,-9.848 -20.802,-9.848 v 0 c -14.808,0 -24.679,11.958 -24.679,33.411 v 0 c 0,20.749 11.635,33.058 25.032,33.058 v 0 c 7.756,0 13.397,-3.516 19.039,-8.44 v 0 l 15.865,19.342 c -8.109,8.09 -20.449,15.123 -35.609,15.123 v 0 c -28.91,0 -55.352,-21.804 -55.352,-60.139 m 570.079,58.029 V 234.787 h 73.687 v 25.322 h -43.366 v 88.977 z M 610.915,234.787 h 30.321 v 114.298 h -30.321 z m -99.56,114.299 -34.904,-114.299 h 31.026 l 3.247,13.831 -5.624,4.387 -6.157,8.153 62.857,6.293 -15.484,-14.828 4.526,-17.836 h 32.083 l -34.903,114.299 z m -207.936,0 v -62.6 c 0,-20.398 -5.641,-27.784 -17.629,-27.784 v 0 c -11.987,0 -17.275,7.386 -17.275,27.784 v 0 62.6 h -30.32 v -59.083 c 0,-39.038 15.512,-57.325 47.595,-57.325 v 0 c 32.084,0 46.892,18.287 46.892,57.325 v 0 59.083 z" /></clipPath><clipPath
       id="clipPath70"
       clipPathUnits="userSpaceOnUse"><path
         id="path68"
         d="M 0,522.607 H 1716.674 V 0 H 0 Z" /></clipPath><clipPath
       id="clipPath94"
       clipPathUnits="userSpaceOnUse"><path
         id="path92"
         d="M 0,522.607 H 1716.674 V 0 H 0 Z" /></clipPath></defs><sodipodi:namedview
     inkscape:current-layer="g20"
     inkscape:window-maximized="0"
     inkscape:window-y="23"
     inkscape:window-x="0"
     inkscape:cy="288.12092"
     inkscape:cx="25.45842"
     inkscape:zoom="0.47927092"
     fit-margin-bottom="0"
     fit-margin-right="0"
     fit-margin-left="0"
     fit-margin-top="0"
     showgrid="false"
     id="namedview12"
     inkscape:window-height="784"
     inkscape:window-width="1440"
     inkscape:pageshadow="2"
     inkscape:pageopacity="0"
     guidetolerance="10"
     gridtolerance="10"
     objecttolerance="10"
     borderopacity="1"
     bordercolor="#666666"
     pagecolor="#ffffff" /><g
     transform="matrix(1.3333333,0,0,-1.3333333,-1118.9882,636.52558)"
     inkscape:label="Oval Logo"
     inkscape:groupmode="layer"
     id="g18"><g
       id="g20"><g
         clip-path="url(#clipPath26)"
         id="g22"><g
           transform="translate(1630.5492,261.3032)"
           id="g28"><path
             id="path30"
             style="fill:#001436;fill-opacity:1;fill-rule:nonzero;stroke:none"
             d="m 0,0 c 0,-119.343 -177.14,-216.09 -395.654,-216.09 -218.514,0 -395.654,96.747 -395.654,216.09 0,119.344 177.14,216.091 395.654,216.091 C -177.14,216.091 0,119.344 0,0" /></g><g
           transform="translate(833.2236,259.0586)"
           id="g32" /><g
           transform="translate(683.6816,349.0859)"
           id="g36" /></g></g><text
       id="text86"
       style="font-variant:normal;font-weight:600;font-stretch:normal;font-size:39.9953px;font-family:'Open Sans SemiBold';-inkscape-font-specification:OpenSans-SemiBold;writing-mode:lr-tb;fill:#ffffff;fill-opacity:1;fill-rule:nonzero;stroke:none"
       transform="matrix(0.95037917,0,0,-1,908.6509,185.3574)"><tspan
         id="tspan84"
         sodipodi:role="line"
         y="0"
         x="0 25.357019 49.794147 67.03212 92.429138 115.46643 126.62512 137.78381 148.18259 174.61948 200.01649 215.73465 240.17178 265.56879 290.00592 328.24142 352.67856 378.07556 397.55328 407.95206 429.94946 453.14676 464.30545 475.46411 500.3812 524.8183 548.01562 563.73376 574.13251 596.7699 619.80719 643.00446">Cornell Autonomous Sailboat Team</tspan></text><g
       id="g88"><g
         clip-path="url(#clipPath94)"
         id="g90"><g
           transform="translate(1511.3285,262.354)"
           id="g96"><path
             id="path98"
             style="fill:#ffffff;fill-opacity:1;fill-rule:nonzero;stroke:none"
             d="M 0,0 V 88.977 H -30.321 V -25.321 H 43.365 V 0 Z" /></g><g
           transform="translate(966.6323,260.9472)"
           id="g100"><path
             id="path102"
             style="fill:#ffffff;fill-opacity:1;fill-rule:nonzero;stroke:none"
             d="m 0,0 c -14.808,0 -24.679,11.957 -24.679,33.41 0,20.75 11.634,33.059 25.032,33.059 7.756,0 13.397,-3.517 19.039,-8.441 l 15.865,19.343 c -8.11,8.089 -20.449,15.123 -35.61,15.123 -28.91,0 -55.352,-21.805 -55.352,-60.139 0,-39.037 25.385,-58.379 54.647,-58.379 14.808,0 28.03,5.626 37.725,16.88 L 20.802,9.847 C 15.865,4.572 8.814,0 0,0" /></g><g
           transform="translate(1230.4496,302.7978)"
           id="g104"><path
             id="path106"
             style="fill:#ffffff;fill-opacity:1;fill-rule:nonzero;stroke:none"
             d="m 0,0 -13.926,5.451 c -10.4,4.045 -16.923,5.979 -16.923,11.43 0,5.099 4.583,7.737 11.988,7.737 8.461,0 15.16,-2.813 22.916,-8.264 l 15.16,18.991 C 8.639,45.719 -5.816,50.643 -18.861,50.643 c -25.033,0 -42.66,-16.002 -42.66,-35.52 0,-16.53 10.752,-26.904 23.092,-31.828 l 14.279,-5.979 c 9.695,-3.868 15.512,-5.627 15.512,-11.078 0,-5.099 -3.878,-8.089 -13.044,-8.089 -8.462,0 -18.686,4.572 -26.795,11.079 l -17.276,-20.75 c 12.34,-11.078 28.91,-16.353 43.365,-16.353 28.558,0 44.777,17.232 44.777,36.575 0,15.826 -8.11,25.673 -22.389,31.3" /></g><g
           transform="translate(1100.7445,288.7304)"
           id="g108"><path
             id="path110"
             style="fill:#ffffff;fill-opacity:1;fill-rule:nonzero;stroke:none"
             d="m 0,0 c 0,-20.398 -5.641,-27.783 -17.628,-27.783 -11.987,0 -17.275,7.385 -17.275,27.783 V 62.6 H -65.225 V 3.517 c 0,-39.037 15.514,-57.325 47.597,-57.325 32.083,0 46.892,18.288 46.892,57.325 V 62.6 H 0 Z" /></g><g
           transform="translate(1341.7318,284.2973)"
           id="g112"><path
             id="path114"
             style="fill:#ffffff;fill-opacity:1;fill-rule:nonzero;stroke:none"
             d="m 0,0 c -0.902,-3.022 -2.51,-7.306 -5.479,-11.971 l -15.691,-1.972 c 1.264,3.466 2.602,8.44 2.71,14.495 0.218,12.178 -4.672,21.194 -7.066,25.023 3.288,-0.472 8.328,-0.689 13.958,1.188 1.891,0.631 3.549,1.398 4.969,2.181 1.463,-1.047 3.772,-2.991 5.614,-6.156 C 1.244,18.957 1.6,15.385 1.802,13.104 2.275,7.763 1.103,3.694 0,0 m -29.357,-14.404 -6.069,-0.605 -7.22,-0.74 c 1.788,2.212 3.661,4.879 5.395,8.031 3.985,7.239 5.615,14.09 6.323,19.044 1.314,-2.332 3.56,-7.05 3.791,-13.408 0.203,-5.567 -1.228,-9.921 -2.22,-12.322 m -3.694,81.437 -34.904,-114.298 h 31.026 l 3.246,13.83 -0.012,0.01 c -1.847,1.168 -3.737,2.603 -5.534,4.318 l -0.078,0.06 -0.039,0.051 c -2.299,2.214 -4.44,4.888 -6.117,8.101 l 62.858,6.294 c -4.011,-3.972 -8.816,-8.73 -13.224,-13.094 -0.756,-0.616 -1.496,-1.172 -2.226,-1.7 L 1.909,-29.43 6.437,-47.265 H 38.52 L 3.615,67.033 Z" /></g><path
           id="path116"
           style="fill:#ffffff;fill-opacity:1;fill-rule:nonzero;stroke:none"
           d="m 1408.242,237.033 h 30.321 v 114.298 h -30.321 z" /></g></g></g></svg>
