<?xml version="1.0" encoding="UTF-8" standalone="no"?>
<svg
   xmlns:dc="http://purl.org/dc/elements/1.1/"
   xmlns:cc="http://creativecommons.org/ns#"
   xmlns:rdf="http://www.w3.org/1999/02/22-rdf-syntax-ns#"
   xmlns:svg="http://www.w3.org/2000/svg"
   xmlns="http://www.w3.org/2000/svg"
   xmlns:sodipodi="http://sodipodi.sourceforge.net/DTD/sodipodi-0.dtd"
   xmlns:inkscape="http://www.inkscape.org/namespaces/inkscape"
   version="1.1"
   id="svg508"
   xml:space="preserve"
   width="1505.3337"
   height="256.30969"
   viewBox="0 0 1505.3338 256.30969"
   sodipodi:docname="nav_sticker.svg"
   inkscape:version="1.0 (4035a4f, 2020-05-01)"><metadata
     id="metadata514"><rdf:RDF><cc:Work
         rdf:about=""><dc:format>image/svg+xml</dc:format><dc:type
           rdf:resource="http://purl.org/dc/dcmitype/StillImage" /><dc:title /></cc:Work></rdf:RDF></metadata><defs
     id="defs512"><clipPath
       clipPathUnits="userSpaceOnUse"
       id="clipPath596"><path
         d="M 0,768 H 1366 V 0 H 0 Z"
         id="path594" /></clipPath></defs><sodipodi:namedview
     inkscape:document-rotation="0"
     pagecolor="#ffffff"
     bordercolor="#666666"
     borderopacity="1"
     objecttolerance="10"
     gridtolerance="10"
     guidetolerance="10"
     inkscape:pageopacity="0"
     inkscape:pageshadow="2"
     inkscape:window-width="1440"
     inkscape:window-height="781"
     id="namedview510"
     showgrid="false"
     fit-margin-top="0"
     fit-margin-left="0"
     fit-margin-right="0"
     fit-margin-bottom="0"
     inkscape:zoom="0.59787408"
     inkscape:cx="752.66685"
     inkscape:cy="128.15486"
     inkscape:window-x="0"
     inkscape:window-y="23"
     inkscape:window-maximized="0"
     inkscape:current-layer="g592" /><g
     id="g516"
     inkscape:groupmode="layer"
     inkscape:label="nav_sticker (1)"
     transform="matrix(1.3333333,0,0,-1.3333333,-140.66626,776.46956)"><g
       id="g518"
       transform="translate(1000.1007,412.2864)"><path
         d="M 0,0 V 80.919 Z"
         style="fill:#ffffff;fill-opacity:1;fill-rule:nonzero;stroke:none"
         id="path520" /></g><g
       id="g522"
       transform="translate(1000.1006,493.2051)"><path
         d="M 0,0 V -80.918"
         style="fill:none;stroke:#65c8d0;stroke-width:0.75;stroke-linecap:butt;stroke-linejoin:miter;stroke-miterlimit:10;stroke-dasharray:none;stroke-opacity:1"
         id="path524" /></g><g
       id="g526"
       transform="translate(1006.8435,413.0352)"><path
         d="M 0,0 V 82.418 Z"
         style="fill:#ffffff;fill-opacity:1;fill-rule:nonzero;stroke:none"
         id="path528" /></g><g
       id="g530"
       transform="translate(1006.8437,495.4531)"><path
         d="M 0,0 V -82.417"
         style="fill:none;stroke:#65c8d0;stroke-width:1;stroke-linecap:butt;stroke-linejoin:miter;stroke-miterlimit:10;stroke-dasharray:none;stroke-opacity:1"
         id="path532" /></g><g
       id="g534"
       transform="translate(1014.3369,405.5436)"><path
         d="M 0,0 -0.665,89.909 Z"
         style="fill:#ffffff;fill-opacity:1;fill-rule:nonzero;stroke:none"
         id="path536" /></g><g
       id="g538"
       transform="translate(1013.6719,495.4531)"><path
         d="M 0,0 0.665,-89.91"
         style="fill:none;stroke:#65c8d0;stroke-width:1;stroke-linecap:butt;stroke-linejoin:miter;stroke-miterlimit:10;stroke-dasharray:none;stroke-opacity:1"
         id="path540" /></g><g
       id="g542"
       transform="translate(1021.8294,416.0331)"><path
         d="M 0,0 V 79.42 Z"
         style="fill:#ffffff;fill-opacity:1;fill-rule:nonzero;stroke:none"
         id="path544" /></g><g
       id="g546"
       transform="translate(1021.8291,495.4531)"><path
         d="M 0,0 V -79.42"
         style="fill:none;stroke:#65c8d0;stroke-width:1;stroke-linecap:butt;stroke-linejoin:miter;stroke-miterlimit:10;stroke-dasharray:none;stroke-opacity:1"
         id="path548" /></g><g
       id="g550"
       transform="translate(1029.3209,413.0352)"><path
         d="M 0,0 -0.522,81.173 Z"
         style="fill:#ffffff;fill-opacity:1;fill-rule:nonzero;stroke:none"
         id="path552" /></g><g
       id="g554"
       transform="translate(1028.7988,494.208)"><path
         d="M 0,0 0.522,-81.172"
         style="fill:none;stroke:#65c8d0;stroke-width:1;stroke-linecap:butt;stroke-linejoin:miter;stroke-miterlimit:10;stroke-dasharray:none;stroke-opacity:1"
         id="path556" /></g><g
       id="g558"
       transform="translate(1036.1816,412.9092)"><path
         d="M 0,0 -0.523,81.172 Z"
         style="fill:#ffffff;fill-opacity:1;fill-rule:nonzero;stroke:none"
         id="path560" /></g><g
       id="g562"
       transform="translate(1035.6592,494.0811)"><path
         d="M 0,0 0.522,-81.172"
         style="fill:none;stroke:#65c8d0;stroke-width:1;stroke-linecap:butt;stroke-linejoin:miter;stroke-miterlimit:10;stroke-dasharray:none;stroke-opacity:1"
         id="path564" /></g><g
       id="g566"
       transform="translate(1043.675,415.9062)"><path
         d="M 0,0 -0.524,81.172 Z"
         style="fill:#ffffff;fill-opacity:1;fill-rule:nonzero;stroke:none"
         id="path568" /></g><g
       id="g570"
       transform="translate(1043.1514,497.0781)"><path
         d="M 0,0 0.523,-81.172"
         style="fill:none;stroke:#65c8d0;stroke-width:1;stroke-linecap:butt;stroke-linejoin:miter;stroke-miterlimit:10;stroke-dasharray:none;stroke-opacity:1"
         id="path572" /></g><g
       id="g574"
       transform="translate(994.2246,423.3987)"><path
         d="M 0,0 -0.524,81.172 Z"
         style="fill:#ffffff;fill-opacity:1;fill-rule:nonzero;stroke:none"
         id="path576" /></g><g
       id="g578"
       transform="translate(993.7012,504.5708)"><path
         d="M 0,0 0.523,-81.172"
         style="fill:none;stroke:#65c8d0;stroke-width:1;stroke-linecap:butt;stroke-linejoin:miter;stroke-miterlimit:10;stroke-dasharray:none;stroke-opacity:1"
         id="path580" /></g><g
       id="g582"
       transform="translate(1049.6682,400.9212)"><path
         d="M 0,0 -0.523,81.172 Z"
         style="fill:#ffffff;fill-opacity:1;fill-rule:nonzero;stroke:none"
         id="path584" /></g><g
       id="g586"
       transform="translate(1049.1455,482.0933)"><path
         d="M 0,0 0.522,-81.172"
         style="fill:none;stroke:#65c8d0;stroke-width:1;stroke-linecap:butt;stroke-linejoin:miter;stroke-miterlimit:10;stroke-dasharray:none;stroke-opacity:1"
         id="path588" /></g><g
       id="g590"><g
         id="g592"
         clip-path="url(#clipPath596)"><g
           id="g598"
           transform="translate(195.1855,456.8579)"><path
             d="m 0,0 c 4.346,-6.444 7.193,-11.239 10.79,-17.833 -0.6,6.893 -0.9,13.787 -0.9,22.179 v 34.167 c 0,9.891 -0.299,15.885 -1.198,22.779 H 40.611 C 39.712,54.548 39.412,48.254 39.412,38.513 v -79.575 c 0,-9.141 0.45,-16.034 1.199,-22.328 H 7.792 c -2.697,5.695 -6.144,11.239 -11.239,19.032 l -27.723,41.81 c -4.047,5.994 -6.594,10.49 -10.79,18.433 0.749,-6.744 1.049,-14.987 1.049,-22.329 v -33.568 c 0,-10.341 0.3,-16.934 1.198,-23.378 h -31.92 c 0.9,5.845 1.199,12.438 1.199,23.527 v 78.826 c 0,8.692 -0.299,15.435 -1.199,22.329 h 32.52 c 1.499,-4.046 4.796,-10.041 10.639,-18.733 z"
             style="fill:#65c8d0;fill-opacity:1;fill-rule:nonzero;stroke:none"
             id="path600" /></g><g
           id="g602"
           transform="translate(195.1855,456.8579)"><path
             d="m 0,0 c 4.346,-6.444 7.193,-11.239 10.79,-17.833 -0.6,6.893 -0.9,13.787 -0.9,22.179 v 34.167 c 0,9.891 -0.299,15.885 -1.198,22.779 H 40.611 C 39.712,54.548 39.412,48.254 39.412,38.513 v -79.575 c 0,-9.141 0.45,-16.034 1.199,-22.328 H 7.792 c -2.697,5.695 -6.144,11.239 -11.239,19.032 l -27.723,41.81 c -4.047,5.994 -6.594,10.49 -10.79,18.433 0.749,-6.744 1.049,-14.987 1.049,-22.329 v -33.568 c 0,-10.341 0.3,-16.934 1.198,-23.378 h -31.92 c 0.9,5.845 1.199,12.438 1.199,23.527 v 78.826 c 0,8.692 -0.299,15.435 -1.199,22.329 h 32.52 c 1.499,-4.046 4.796,-10.041 10.639,-18.733 z"
             style="fill:none;stroke:#65c8d0;stroke-width:1;stroke-linecap:butt;stroke-linejoin:miter;stroke-miterlimit:10;stroke-dasharray:none;stroke-opacity:1"
             id="path604" /></g><g
           id="g606"
           transform="translate(310.2681,492.5239)"><path
             d="m 0,0 -13.937,-44.958 h 28.173 z m 29.222,-99.056 c -1.199,7.193 -2.098,11.089 -3.596,16.184 l -4.046,12.739 h -42.71 l -4.047,-12.739 c -1.948,-5.994 -2.997,-10.64 -3.746,-16.184 H -63.99 c 2.248,4.495 3.596,8.092 7.194,18.283 l 32.369,90.214 c 2.698,7.343 4.046,11.839 4.795,16.185 H 19.481 C 20.53,21.28 21.58,17.383 24.577,9.441 l 32.519,-90.214 c 2.847,-7.943 5.245,-14.087 7.193,-18.283 z"
             style="fill:#65c8d0;fill-opacity:1;fill-rule:nonzero;stroke:none"
             id="path608" /></g><g
           id="g610"
           transform="translate(310.2681,492.5239)"><path
             d="m 0,0 -13.937,-44.958 h 28.173 z m 29.222,-99.056 c -1.199,7.193 -2.098,11.089 -3.596,16.184 l -4.046,12.739 h -42.71 l -4.047,-12.739 c -1.948,-5.994 -2.997,-10.64 -3.746,-16.184 H -63.99 c 2.248,4.495 3.596,8.092 7.194,18.283 l 32.369,90.214 c 2.698,7.343 4.046,11.839 4.795,16.185 H 19.481 C 20.53,21.28 21.58,17.383 24.577,9.441 l 32.519,-90.214 c 2.847,-7.943 5.245,-14.087 7.193,-18.283 z"
             style="fill:none;stroke:#65c8d0;stroke-width:1;stroke-linecap:butt;stroke-linejoin:miter;stroke-miterlimit:10;stroke-dasharray:none;stroke-opacity:1"
             id="path612" /></g><g
           id="g614"
           transform="translate(425.0532,429.8828)"><path
             d="M 0,0 C 1.199,-4.046 1.199,-4.046 2.848,-10.34 4.646,-3.746 4.946,-2.847 5.695,0 l 21.729,72.082 c 1.948,6.893 2.997,11.089 3.448,16.185 H 66.087 C 63.99,83.771 62.641,80.325 58.894,69.984 L 27.125,-20.23 c -2.548,-7.343 -4.047,-12.439 -4.796,-16.185 h -38.963 c -0.749,3.896 -2.248,8.992 -4.796,16.185 l -31.919,90.214 c -2.997,8.692 -4.497,12.438 -7.044,18.283 h 35.067 c 0.599,-4.795 1.948,-10.64 3.597,-16.185 z"
             style="fill:#65c8d0;fill-opacity:1;fill-rule:nonzero;stroke:none"
             id="path616" /></g><g
           id="g618"
           transform="translate(425.0532,429.8828)"><path
             d="M 0,0 C 1.199,-4.046 1.199,-4.046 2.848,-10.34 4.646,-3.746 4.946,-2.847 5.695,0 l 21.729,72.082 c 1.948,6.893 2.997,11.089 3.448,16.185 H 66.087 C 63.99,83.771 62.641,80.325 58.894,69.984 L 27.125,-20.23 c -2.548,-7.343 -4.047,-12.439 -4.796,-16.185 h -38.963 c -0.749,3.896 -2.248,8.992 -4.796,16.185 l -31.919,90.214 c -2.997,8.692 -4.497,12.438 -7.044,18.283 h 35.067 c 0.599,-4.795 1.948,-10.64 3.597,-16.185 z"
             style="fill:none;stroke:#65c8d0;stroke-width:1;stroke-linecap:butt;stroke-linejoin:miter;stroke-miterlimit:10;stroke-dasharray:none;stroke-opacity:1"
             id="path620" /></g><g
           id="g622"
           transform="translate(534.4404,518.1499)" /><g
           id="g626"
           transform="translate(534.4404,518.1499)" /><g
           id="g630"
           transform="translate(625.6997,439.0244)"><path
             d="m 0,0 c -7.643,0 -10.19,-0.15 -14.835,-0.749 v 26.525 c 5.544,-0.75 9.141,-0.899 19.63,-0.899 h 11.989 c 7.643,0 13.188,0.149 19.782,0.749 -0.749,-5.695 -1.049,-10.64 -1.049,-20.381 v -16.784 c 0,-10.64 0.15,-15.435 1.049,-22.329 -8.242,-5.245 -12.289,-7.193 -19.033,-9.441 -9.74,-3.297 -20.68,-5.095 -31.769,-5.095 -19.032,0 -33.868,5.245 -44.508,16.034 -11.389,11.39 -17.683,29.223 -17.683,49.754 0,39.412 23.827,64.438 61.592,64.438 18.732,0 32.968,-5.843 42.858,-17.832 4.047,-4.646 6.444,-9.142 8.842,-16.335 L 6.295,40.612 c -1.649,5.394 -3.447,8.242 -6.744,10.79 -3.897,3.147 -8.842,4.645 -15.136,4.645 -19.182,0 -29.672,-13.937 -29.672,-39.113 0,-13.937 3.147,-24.726 9.142,-31.32 4.795,-5.246 12.137,-8.093 21.579,-8.093 7.943,0 14.387,1.649 21.729,5.395 L 7.193,0 Z"
             style="fill:#65c8d0;fill-opacity:1;fill-rule:nonzero;stroke:none"
             id="path632" /></g><g
           id="g634"
           transform="translate(625.6997,439.0244)"><path
             d="m 0,0 c -7.643,0 -10.19,-0.15 -14.835,-0.749 v 26.525 c 5.544,-0.75 9.141,-0.899 19.63,-0.899 h 11.989 c 7.643,0 13.188,0.149 19.782,0.749 -0.749,-5.695 -1.049,-10.64 -1.049,-20.381 v -16.784 c 0,-10.64 0.15,-15.435 1.049,-22.329 -8.242,-5.245 -12.289,-7.193 -19.033,-9.441 -9.74,-3.297 -20.68,-5.095 -31.769,-5.095 -19.032,0 -33.868,5.245 -44.508,16.034 -11.389,11.39 -17.683,29.223 -17.683,49.754 0,39.412 23.827,64.438 61.592,64.438 18.732,0 32.968,-5.843 42.858,-17.832 4.047,-4.646 6.444,-9.142 8.842,-16.335 L 6.295,40.612 c -1.649,5.394 -3.447,8.242 -6.744,10.79 -3.897,3.147 -8.842,4.645 -15.136,4.645 -19.182,0 -29.672,-13.937 -29.672,-39.113 0,-13.937 3.147,-24.726 9.142,-31.32 4.795,-5.246 12.137,-8.093 21.579,-8.093 7.943,0 14.387,1.649 21.729,5.395 L 7.193,0 Z"
             style="fill:none;stroke:#65c8d0;stroke-width:1;stroke-linecap:butt;stroke-linejoin:miter;stroke-miterlimit:10;stroke-dasharray:none;stroke-opacity:1"
             id="path636" /></g><g
           id="g638"
           transform="translate(946.2236,518.1499)"><path
             d="m 0,0 c -0.899,-6.145 -1.199,-11.24 -1.199,-22.179 v -80.324 c 0,-10.341 0.3,-15.885 1.199,-22.179 h -32.97 c 0.9,5.845 1.199,12.139 1.199,22.179 v 80.324 c 0,11.239 -0.299,15.585 -1.199,22.179 z"
             style="fill:#65c8d0;fill-opacity:1;fill-rule:nonzero;stroke:none"
             id="path640" /></g><g
           id="g642"
           transform="translate(946.2236,518.1499)"><path
             d="m 0,0 c -0.899,-6.145 -1.199,-11.24 -1.199,-22.179 v -80.324 c 0,-10.341 0.3,-15.885 1.199,-22.179 h -32.97 c 0.9,5.845 1.199,12.139 1.199,22.179 v 80.324 c 0,11.239 -0.299,15.585 -1.199,22.179 z"
             style="fill:none;stroke:#65c8d0;stroke-width:1;stroke-linecap:butt;stroke-linejoin:miter;stroke-miterlimit:10;stroke-dasharray:none;stroke-opacity:1"
             id="path644" /></g><g
           id="g646"
           transform="translate(1050.8193,456.1079)"><path
             d="m 0,0 c 0,24.277 -11.089,38.964 -29.222,38.964 -18.282,0 -29.521,-14.837 -29.521,-38.964 0,-24.426 11.239,-39.562 29.521,-39.562 C -11.089,-39.562 0,-24.577 0,0 m 31.172,0.3 c 0,-39.562 -24.128,-65.788 -60.543,-65.788 -36.716,0 -60.393,25.626 -60.393,65.339 0,39.562 23.677,64.888 60.542,64.888 36.866,0 60.394,-25.176 60.394,-64.439"
             style="fill:#65c8d0;fill-opacity:1;fill-rule:nonzero;stroke:none"
             id="path648" /></g><g
           id="g650"
           transform="translate(1050.8193,456.1079)"><path
             d="m 0,0 c 0,24.277 -11.089,38.964 -29.222,38.964 -18.282,0 -29.521,-14.837 -29.521,-38.964 0,-24.426 11.239,-39.562 29.521,-39.562 C -11.089,-39.562 0,-24.577 0,0 Z m 31.172,0.3 c 0,-39.562 -24.128,-65.788 -60.543,-65.788 -36.716,0 -60.393,25.626 -60.393,65.339 0,39.562 23.677,64.888 60.542,64.888 36.866,0 60.394,-25.176 60.394,-64.439 z"
             style="fill:none;stroke:#65c8d0;stroke-width:1;stroke-linecap:butt;stroke-linejoin:miter;stroke-miterlimit:10;stroke-dasharray:none;stroke-opacity:1"
             id="path652" /></g><g
           id="g654"
           transform="translate(1168.5996,456.8579)"><path
             d="M 0,0 C 4.346,-6.444 7.193,-11.239 10.79,-17.833 10.19,-10.94 9.891,-4.046 9.891,4.346 v 34.167 c 0,9.891 -0.3,15.885 -1.199,22.779 H 40.611 C 39.713,54.548 39.412,48.254 39.412,38.513 v -79.575 c 0,-9.141 0.449,-16.034 1.199,-22.328 H 7.794 c -2.699,5.695 -6.146,11.239 -11.24,19.032 l -27.724,41.81 c -4.047,5.994 -6.595,10.49 -10.79,18.433 0.75,-6.744 1.048,-14.987 1.048,-22.329 v -33.568 c 0,-10.341 0.3,-16.934 1.2,-23.378 h -31.921 c 0.901,5.845 1.199,12.438 1.199,23.527 v 78.826 c 0,8.692 -0.298,15.435 -1.199,22.329 h 32.52 c 1.498,-4.046 4.795,-10.041 10.639,-18.733 z"
             style="fill:#65c8d0;fill-opacity:1;fill-rule:nonzero;stroke:none"
             id="path656" /></g><g
           id="g658"
           transform="translate(1168.5996,456.8579)"><path
             d="M 0,0 C 4.346,-6.444 7.193,-11.239 10.79,-17.833 10.19,-10.94 9.891,-4.046 9.891,4.346 v 34.167 c 0,9.891 -0.3,15.885 -1.199,22.779 H 40.611 C 39.713,54.548 39.412,48.254 39.412,38.513 v -79.575 c 0,-9.141 0.449,-16.034 1.199,-22.328 H 7.794 c -2.699,5.695 -6.146,11.239 -11.24,19.032 l -27.724,41.81 c -4.047,5.994 -6.595,10.49 -10.79,18.433 0.75,-6.744 1.048,-14.987 1.048,-22.329 v -33.568 c 0,-10.341 0.3,-16.934 1.2,-23.378 h -31.921 c 0.901,5.845 1.199,12.438 1.199,23.527 v 78.826 c 0,8.692 -0.298,15.435 -1.199,22.329 h 32.52 c 1.498,-4.046 4.795,-10.041 10.639,-18.733 z"
             style="fill:none;stroke:#65c8d0;stroke-width:1;stroke-linecap:butt;stroke-linejoin:miter;stroke-miterlimit:10;stroke-dasharray:none;stroke-opacity:1"
             id="path660" /></g><g
           id="g664"
           transform="translate(795.4844,521.4141)"><path
             d="m 0,0 c -9.657,0 -17.515,-7.613 -17.515,-16.97 0,-9.358 7.858,-16.97 17.515,-16.97 9.658,0 17.516,7.612 17.516,16.97 C 17.516,-7.613 9.658,0 0,0 m 0,-5 c 6.912,0 12.516,-5.359 12.516,-11.97 0,-6.611 -5.604,-11.97 -12.516,-11.97 -6.912,0 -12.515,5.359 -12.515,11.97 0,6.611 5.603,11.97 12.515,11.97"
             style="fill:#65c8d0;fill-opacity:1;fill-rule:nonzero;stroke:none"
             id="path666" /></g><g
           id="g668"
           transform="translate(690,527)"><path
             d="M 0,0 12.65,14.906 64,15"
             style="fill:none;stroke:#65c8d0;stroke-width:4;stroke-linecap:butt;stroke-linejoin:miter;stroke-miterlimit:10;stroke-dasharray:none;stroke-opacity:1"
             id="path670" /></g><g
           id="g672"
           transform="translate(774.5781,541.5493)"><path
             d="m 0,0 c 0,-5.596 -4.515,-10.133 -10.083,-10.133 -5.569,0 -10.084,4.537 -10.084,10.133 0,5.596 4.515,10.132 10.084,10.132 C -4.515,10.132 0,5.596 0,0 Z"
             style="fill:none;stroke:#65c8d0;stroke-width:3;stroke-linecap:butt;stroke-linejoin:miter;stroke-miterlimit:10;stroke-dasharray:none;stroke-opacity:1"
             id="path674" /></g><g
           id="g676"
           transform="translate(693.3164,518.2695)"><path
             d="m 0,0 c 0,-5.596 -4.515,-10.132 -10.083,-10.132 -5.569,0 -10.084,4.536 -10.084,10.132 0,5.596 4.515,10.132 10.084,10.132 C -4.515,10.132 0,5.596 0,0 Z"
             style="fill:none;stroke:#65c8d0;stroke-width:3;stroke-linecap:butt;stroke-linejoin:miter;stroke-miterlimit:10;stroke-dasharray:none;stroke-opacity:1"
             id="path678" /></g><g
           id="g680"
           transform="translate(253.8521,560.6372)"><path
             d="M 0,0 -5.994,-8.991 H -122.876"
             style="fill:none;stroke:#65c8d0;stroke-width:2;stroke-linecap:butt;stroke-linejoin:miter;stroke-miterlimit:10;stroke-dasharray:none;stroke-opacity:1"
             id="path682" /></g><g
           id="g684"
           transform="translate(115.9907,538.1597)"><path
             d="M 0,0 -8.991,-17.981 V -145.354"
             style="fill:none;stroke:#65c8d0;stroke-width:3;stroke-linecap:butt;stroke-linejoin:miter;stroke-miterlimit:10;stroke-dasharray:none;stroke-opacity:1"
             id="path686" /></g><g
           id="g688"
           transform="translate(262.8433,564.0869)"><path
             d="m 0,0 c 0,-3.561 -2.744,-6.447 -6.129,-6.447 -3.386,0 -6.129,2.886 -6.129,6.447 0,3.56 2.743,6.446 6.129,6.446 C -2.744,6.446 0,3.56 0,0"
             style="fill:#65c8d0;fill-opacity:1;fill-rule:nonzero;stroke:none"
             id="path690" /></g><g
           id="g692"
           transform="translate(405.1997,571.127)"><path
             d="m 0,0 h -133.354 v -29.97 h -133.377 l -4.496,-8.991"
             style="fill:none;stroke:#65c8d0;stroke-width:4;stroke-linecap:butt;stroke-linejoin:miter;stroke-miterlimit:10;stroke-dasharray:none;stroke-opacity:1"
             id="path694" /></g><g
           id="g696"
           transform="translate(297.1992,534.6523)"><path
             d="m 0,0 c 0.542,-2.423 -0.999,-4.83 -3.441,-5.375 -2.442,-0.546 -4.861,0.976 -5.402,3.399 -0.542,2.423 0.999,4.83 3.441,5.375 C -2.96,3.945 -0.541,2.423 0,0"
             style="fill:#65c8d0;fill-opacity:1;fill-rule:nonzero;stroke:none"
             id="path698" /></g><g
           id="g700"
           transform="translate(297.1992,534.6523)"><path
             d="m 0,0 c 0.542,-2.423 -0.999,-4.83 -3.441,-5.375 -2.442,-0.546 -4.861,0.976 -5.402,3.399 -0.542,2.423 0.999,4.83 3.441,5.375 C -2.96,3.945 -0.541,2.423 0,0 Z"
             style="fill:none;stroke:#65c8d0;stroke-width:1;stroke-linecap:butt;stroke-linejoin:miter;stroke-miterlimit:10;stroke-dasharray:none;stroke-opacity:1"
             id="path702" /></g><path
           d="m 295.061,517.181 h -3.746 v 12.737 h 3.746 z"
           style="fill:#65c8d0;fill-opacity:1;fill-rule:nonzero;stroke:#65c8d0;stroke-width:1;stroke-linecap:butt;stroke-linejoin:miter;stroke-miterlimit:10;stroke-dasharray:none;stroke-opacity:1"
           id="path704" /><path
           d="m 305.857,517.112 h -3.747 v 12.737 h 3.747 z"
           style="fill:#65c8d0;fill-opacity:1;fill-rule:nonzero;stroke:#65c8d0;stroke-width:1;stroke-linecap:butt;stroke-linejoin:miter;stroke-miterlimit:10;stroke-dasharray:none;stroke-opacity:1"
           id="path706" /><path
           d="m 317.845,517.112 h -3.746 v 12.737 h 3.746 z"
           style="fill:#65c8d0;fill-opacity:1;fill-rule:nonzero;stroke:#65c8d0;stroke-width:1;stroke-linecap:butt;stroke-linejoin:miter;stroke-miterlimit:10;stroke-dasharray:none;stroke-opacity:1"
           id="path708" /><g
           id="g710"
           transform="translate(329.6035,517.0488)"><path
             d="m 0,0 -3.744,0.134 0.456,12.729 3.744,-0.134 z"
             style="fill:#65c8d0;fill-opacity:1;fill-rule:nonzero;stroke:none"
             id="path712" /></g><g
           id="g714"
           transform="translate(329.6035,517.0488)"><path
             d="m 0,0 -3.744,0.134 0.456,12.729 3.744,-0.134 z"
             style="fill:none;stroke:#65c8d0;stroke-width:1;stroke-linecap:butt;stroke-linejoin:miter;stroke-miterlimit:10;stroke-dasharray:none;stroke-opacity:1"
             id="path716" /></g><g
           id="g718"
           transform="translate(308.8047,533.6196)"><path
             d="m 0,0 c 0,-2.483 -2.028,-4.496 -4.531,-4.496 -2.502,0 -4.531,2.013 -4.531,4.496 0,2.482 2.029,4.495 4.531,4.495 C -2.028,4.495 0,2.482 0,0"
             style="fill:#65c8d0;fill-opacity:1;fill-rule:nonzero;stroke:none"
             id="path720" /></g><g
           id="g722"
           transform="translate(320.3237,533.1348)"><path
             d="m 0,0 c 0,-2.482 -2.028,-4.495 -4.531,-4.495 -2.502,0 -4.531,2.013 -4.531,4.495 0,2.483 2.029,4.496 4.531,4.496 C -2.028,4.496 0,2.483 0,0"
             style="fill:#65c8d0;fill-opacity:1;fill-rule:nonzero;stroke:none"
             id="path724" /></g><g
           id="g726"
           transform="translate(332.3115,533.1348)"><path
             d="m 0,0 c 0,-2.482 -2.028,-4.495 -4.531,-4.495 -2.502,0 -4.531,2.013 -4.531,4.495 0,2.483 2.029,4.496 4.531,4.496 C -2.028,4.496 0,2.483 0,0"
             style="fill:#65c8d0;fill-opacity:1;fill-rule:nonzero;stroke:none"
             id="path728" /></g><g
           id="g730"
           transform="translate(529.5747,541.9062)"><path
             d="m 0,0 c 0,-6.207 -5.032,-11.239 -11.239,-11.239 -6.207,0 -11.239,5.032 -11.239,11.239 0,6.207 5.032,11.239 11.239,11.239 C -5.032,11.239 0,6.207 0,0 Z"
             style="fill:none;stroke:#65c8d0;stroke-width:2;stroke-linecap:butt;stroke-linejoin:miter;stroke-miterlimit:10;stroke-dasharray:none;stroke-opacity:1"
             id="path732" /></g><g
           id="g734"
           transform="translate(525.0791,541.9062)"><path
             d="m 0,0 c 0,-3.724 -3.019,-6.743 -6.743,-6.743 -3.724,0 -6.743,3.019 -6.743,6.743 0,3.724 3.019,6.743 6.743,6.743 C -3.019,6.743 0,3.724 0,0 Z"
             style="fill:none;stroke:#65c8d0;stroke-width:2;stroke-linecap:butt;stroke-linejoin:miter;stroke-miterlimit:10;stroke-dasharray:none;stroke-opacity:1"
             id="path736" /></g><g
           id="g738"
           transform="translate(520.0215,541.9062)"><path
             d="m 0,0 c 0,-0.931 -0.754,-1.686 -1.686,-1.686 -0.931,0 -1.686,0.755 -1.686,1.686 0,0.931 0.755,1.686 1.686,1.686 C -0.754,1.686 0,0.931 0,0"
             style="fill:#65c8d0;fill-opacity:1;fill-rule:nonzero;stroke:none"
             id="path740" /></g><g
           id="g742"
           transform="translate(520.0215,541.9062)"><path
             d="m 0,0 c 0,-0.931 -0.754,-1.686 -1.686,-1.686 -0.931,0 -1.686,0.755 -1.686,1.686 0,0.931 0.755,1.686 1.686,1.686 C -0.754,1.686 0,0.931 0,0 Z"
             style="fill:none;stroke:#65c8d0;stroke-width:0.5;stroke-linecap:butt;stroke-linejoin:miter;stroke-miterlimit:10;stroke-dasharray:none;stroke-opacity:1"
             id="path744" /></g><g
           id="g746"
           transform="translate(300.3052,553.894)"><path
             d="m 0,0 c 0,-3.724 -3.019,-6.743 -6.743,-6.743 -3.724,0 -6.743,3.019 -6.743,6.743 0,3.724 3.019,6.743 6.743,6.743 C -3.019,6.743 0,3.724 0,0 Z"
             style="fill:none;stroke:#65c8d0;stroke-width:2;stroke-linecap:butt;stroke-linejoin:miter;stroke-miterlimit:10;stroke-dasharray:none;stroke-opacity:1"
             id="path748" /></g><g
           id="g750"
           transform="translate(300.3052,553.894)"><path
             d="m 0,0 h 191.807 l 15.735,-7.493"
             style="fill:none;stroke:#65c8d0;stroke-width:1;stroke-linecap:butt;stroke-linejoin:miter;stroke-miterlimit:10;stroke-dasharray:none;stroke-opacity:1"
             id="path752" /></g><g
           id="g754"
           transform="translate(300.3052,558.3896)"><path
             d="M 0,0 H 191.807 L 209.04,-7.493"
             style="fill:none;stroke:#65c8d0;stroke-width:1;stroke-linecap:butt;stroke-linejoin:miter;stroke-miterlimit:10;stroke-dasharray:none;stroke-opacity:1"
             id="path756" /></g><g
           id="g758"
           transform="translate(300.3052,549.3984)"><path
             d="m 0,0 h 191.807 l 15.735,-7.492"
             style="fill:none;stroke:#65c8d0;stroke-width:1;stroke-linecap:butt;stroke-linejoin:miter;stroke-miterlimit:10;stroke-dasharray:none;stroke-opacity:1"
             id="path760" /></g><g
           id="g762"
           transform="translate(413.5625,579.7642)"><path
             d="m 0,0 c 4.485,0 8.121,-3.611 8.121,-8.065 0,-4.454 -3.636,-8.065 -8.121,-8.065 -4.485,0 -8.121,3.611 -8.121,8.065 C -8.121,-3.611 -4.485,0 0,0 Z"
             style="fill:none;stroke:#65c8d0;stroke-width:2;stroke-linecap:butt;stroke-linejoin:miter;stroke-miterlimit:10;stroke-dasharray:none;stroke-opacity:1"
             id="path764" /></g><g
           id="g766"
           transform="translate(363.2422,535.1631)"><path
             d="M 0,0 H 40.459 L 56.758,-49.163"
             style="fill:none;stroke:#65c8d0;stroke-width:4;stroke-linecap:butt;stroke-linejoin:miter;stroke-miterlimit:10;stroke-dasharray:none;stroke-opacity:1"
             id="path768" /></g><g
           id="g770"
           transform="translate(359.1587,541.7935)"><path
             d="m 0,0 c 3.083,0 5.582,-2.491 5.582,-5.563 0,-3.072 -2.499,-5.563 -5.582,-5.563 -3.083,0 -5.582,2.491 -5.582,5.563 C -5.582,-2.491 -3.083,0 0,0"
             style="fill:#65c8d0;fill-opacity:1;fill-rule:nonzero;stroke:none"
             id="path772" /></g><g
           id="g774"
           transform="translate(359.1587,541.7935)"><path
             d="m 0,0 c 3.083,0 5.582,-2.491 5.582,-5.563 0,-3.072 -2.499,-5.563 -5.582,-5.563 -3.083,0 -5.582,2.491 -5.582,5.563 C -5.582,-2.491 -3.083,0 0,0 Z"
             style="fill:none;stroke:#65c8d0;stroke-width:1;stroke-linecap:butt;stroke-linejoin:miter;stroke-miterlimit:10;stroke-dasharray:none;stroke-opacity:1"
             id="path776" /></g><g
           id="g778"
           transform="translate(422.9116,486.3418)"><path
             d="m 0,0 c 3.083,0 5.582,-2.491 5.582,-5.563 0,-3.072 -2.499,-5.563 -5.582,-5.563 -3.083,0 -5.582,2.491 -5.582,5.563 C -5.582,-2.491 -3.083,0 0,0 Z"
             style="fill:none;stroke:#65c8d0;stroke-width:2;stroke-linecap:butt;stroke-linejoin:miter;stroke-miterlimit:10;stroke-dasharray:none;stroke-opacity:1"
             id="path780" /></g><g
           id="g782"
           transform="translate(439.8618,565.8818)"><path
             d="m 0,0 h -7.886 c -1.133,0 -2.051,0.918 -2.051,2.051 v 7.886 c 0,1.133 0.918,2.051 2.051,2.051 H 0 c 1.133,0 2.051,-0.918 2.051,-2.051 V 2.051 C 2.051,0.918 1.133,0 0,0"
             style="fill:#65c8d0;fill-opacity:1;fill-rule:nonzero;stroke:none"
             id="path784" /></g><g
           id="g786"
           transform="translate(439.8618,565.8818)"><path
             d="m 0,0 h -7.886 c -1.133,0 -2.051,0.918 -2.051,2.051 v 7.886 c 0,1.133 0.918,2.051 2.051,2.051 H 0 c 1.133,0 2.051,-0.918 2.051,-2.051 V 2.051 C 2.051,0.918 1.133,0 0,0 Z"
             style="fill:none;stroke:#65c8d0;stroke-width:1;stroke-linecap:butt;stroke-linejoin:miter;stroke-miterlimit:10;stroke-dasharray:none;stroke-opacity:1"
             id="path788" /></g><g
           id="g790"
           transform="translate(472.8286,565.8818)"><path
             d="m 0,0 h -7.886 c -1.133,0 -2.051,0.918 -2.051,2.051 v 7.886 c 0,1.133 0.918,2.051 2.051,2.051 H 0 c 1.133,0 2.051,-0.918 2.051,-2.051 V 2.051 C 2.051,0.918 1.133,0 0,0"
             style="fill:#65c8d0;fill-opacity:1;fill-rule:nonzero;stroke:none"
             id="path792" /></g><g
           id="g794"
           transform="translate(472.8286,565.8818)"><path
             d="m 0,0 h -7.886 c -1.133,0 -2.051,0.918 -2.051,2.051 v 7.886 c 0,1.133 0.918,2.051 2.051,2.051 H 0 c 1.133,0 2.051,-0.918 2.051,-2.051 V 2.051 C 2.051,0.918 1.133,0 0,0 Z"
             style="fill:none;stroke:#65c8d0;stroke-width:1;stroke-linecap:butt;stroke-linejoin:miter;stroke-miterlimit:10;stroke-dasharray:none;stroke-opacity:1"
             id="path796" /></g><g
           id="g798"
           transform="translate(456.3452,565.8818)"><path
             d="m 0,0 h -7.886 c -1.133,0 -2.051,0.918 -2.051,2.051 v 7.886 c 0,1.133 0.918,2.051 2.051,2.051 H 0 c 1.133,0 2.051,-0.918 2.051,-2.051 V 2.051 C 2.051,0.918 1.133,0 0,0"
             style="fill:#65c8d0;fill-opacity:1;fill-rule:nonzero;stroke:none"
             id="path800" /></g><g
           id="g802"
           transform="translate(456.3452,565.8818)"><path
             d="m 0,0 h -7.886 c -1.133,0 -2.051,0.918 -2.051,2.051 v 7.886 c 0,1.133 0.918,2.051 2.051,2.051 H 0 c 1.133,0 2.051,-0.918 2.051,-2.051 V 2.051 C 2.051,0.918 1.133,0 0,0 Z"
             style="fill:none;stroke:#65c8d0;stroke-width:1;stroke-linecap:butt;stroke-linejoin:miter;stroke-miterlimit:10;stroke-dasharray:none;stroke-opacity:1"
             id="path804" /></g><g
           id="g806"
           transform="translate(489.312,565.8818)"><path
             d="m 0,0 h -7.886 c -1.133,0 -2.051,0.918 -2.051,2.051 v 7.886 c 0,1.133 0.918,2.051 2.051,2.051 H 0 c 1.133,0 2.051,-0.918 2.051,-2.051 V 2.051 C 2.051,0.918 1.133,0 0,0"
             style="fill:#65c8d0;fill-opacity:1;fill-rule:nonzero;stroke:none"
             id="path808" /></g><g
           id="g810"
           transform="translate(489.312,565.8818)"><path
             d="m 0,0 h -7.886 c -1.133,0 -2.051,0.918 -2.051,2.051 v 7.886 c 0,1.133 0.918,2.051 2.051,2.051 H 0 c 1.133,0 2.051,-0.918 2.051,-2.051 V 2.051 C 2.051,0.918 1.133,0 0,0 Z"
             style="fill:none;stroke:#65c8d0;stroke-width:1;stroke-linecap:butt;stroke-linejoin:miter;stroke-miterlimit:10;stroke-dasharray:none;stroke-opacity:1"
             id="path812" /></g><g
           id="g814"
           transform="translate(491.3628,571.6992)"><path
             d="m 0,0 21.729,-0.572 44.954,-35.964 h 109.39 l 17.982,26.973 h 95.903 l 11.988,16.483 8.991,-16.483 h 23.976"
             style="fill:none;stroke:#65c8d0;stroke-width:4;stroke-linecap:butt;stroke-linejoin:miter;stroke-miterlimit:10;stroke-dasharray:none;stroke-opacity:1"
             id="path816" /></g><g
           id="g818"
           transform="translate(122.0347,537.8604)"><path
             d="m 0,0 c 0,-3.104 -2.516,-5.619 -5.619,-5.619 -3.104,0 -5.62,2.515 -5.62,5.619 0,3.104 2.516,5.62 5.62,5.62 C -2.516,5.62 0,3.104 0,0"
             style="fill:#65c8d0;fill-opacity:1;fill-rule:nonzero;stroke:none"
             id="path820" /></g><g
           id="g822"
           transform="translate(122.0347,537.8604)"><path
             d="m 0,0 c 0,-3.104 -2.516,-5.619 -5.619,-5.619 -3.104,0 -5.62,2.515 -5.62,5.619 0,3.104 2.516,5.62 5.62,5.62 C -2.516,5.62 0,3.104 0,0 Z"
             style="fill:none;stroke:#65c8d0;stroke-width:2;stroke-linecap:butt;stroke-linejoin:miter;stroke-miterlimit:10;stroke-dasharray:none;stroke-opacity:1"
             id="path824" /></g><g
           id="g826"
           transform="translate(130.9761,552.3955)"><path
             d="m 0,0 c 0,-2.896 -2.348,-5.245 -5.245,-5.245 -2.897,0 -5.245,2.349 -5.245,5.245 0,2.896 2.348,5.245 5.245,5.245 C -2.348,5.245 0,2.896 0,0 Z"
             style="fill:none;stroke:#65c8d0;stroke-width:2;stroke-linecap:butt;stroke-linejoin:miter;stroke-miterlimit:10;stroke-dasharray:none;stroke-opacity:1"
             id="path828" /></g><g
           id="g830"
           transform="translate(435.9189,496.9512)"><path
             d="M 0,0 10.489,32.967 H 42.707"
             style="fill:none;stroke:#65c8d0;stroke-width:5;stroke-linecap:butt;stroke-linejoin:miter;stroke-miterlimit:10;stroke-dasharray:none;stroke-opacity:1"
             id="path832" /></g><g
           id="g834"
           transform="translate(441.6787,497.5059)"><path
             d="m 0,0 c 0,-3.104 -2.516,-5.619 -5.62,-5.619 -3.103,0 -5.619,2.515 -5.619,5.619 0,3.104 2.516,5.62 5.619,5.62 C -2.516,5.62 0,3.104 0,0"
             style="fill:#65c8d0;fill-opacity:1;fill-rule:nonzero;stroke:none"
             id="path836" /></g><g
           id="g838"
           transform="translate(441.6787,497.5059)"><path
             d="m 0,0 c 0,-3.104 -2.516,-5.619 -5.62,-5.619 -3.103,0 -5.619,2.515 -5.619,5.619 0,3.104 2.516,5.62 5.619,5.62 C -2.516,5.62 0,3.104 0,0 Z"
             style="fill:none;stroke:#65c8d0;stroke-width:2;stroke-linecap:butt;stroke-linejoin:miter;stroke-miterlimit:10;stroke-dasharray:none;stroke-opacity:1"
             id="path840" /></g><g
           id="g842"
           transform="translate(486.6333,530.4727)"><path
             d="m 0,0 c 0,-3.104 -2.516,-5.619 -5.619,-5.619 -3.104,0 -5.62,2.515 -5.62,5.619 0,3.104 2.516,5.62 5.62,5.62 C -2.516,5.62 0,3.104 0,0"
             style="fill:#65c8d0;fill-opacity:1;fill-rule:nonzero;stroke:none"
             id="path844" /></g><g
           id="g846"
           transform="translate(486.6333,530.4727)"><path
             d="m 0,0 c 0,-3.104 -2.516,-5.619 -5.619,-5.619 -3.104,0 -5.62,2.515 -5.62,5.619 0,3.104 2.516,5.62 5.62,5.62 C -2.516,5.62 0,3.104 0,0 Z"
             style="fill:none;stroke:#65c8d0;stroke-width:2;stroke-linecap:butt;stroke-linejoin:miter;stroke-miterlimit:10;stroke-dasharray:none;stroke-opacity:1"
             id="path848" /></g><g
           id="g850"
           transform="translate(136.9697,528.4199)"><path
             d="m 0,0 c 0,-2.897 -2.348,-5.245 -5.245,-5.245 -2.896,0 -5.244,2.348 -5.244,5.245 0,2.896 2.348,5.245 5.244,5.245 C -2.348,5.245 0,2.896 0,0 Z"
             style="fill:none;stroke:#65c8d0;stroke-width:2;stroke-linecap:butt;stroke-linejoin:miter;stroke-miterlimit:10;stroke-dasharray:none;stroke-opacity:1"
             id="path852" /></g><g
           id="g854"
           transform="translate(183.1562,557.3896)"><path
             d="m 0,0 h -8.696 c -1.133,0 -2.051,0.918 -2.051,2.051 v 8.696 c 0,1.133 0.918,2.051 2.051,2.051 H 0 c 1.133,0 2.051,-0.918 2.051,-2.051 V 2.051 C 2.051,0.918 1.133,0 0,0 Z"
             style="fill:none;stroke:#65c8d0;stroke-width:2;stroke-linecap:butt;stroke-linejoin:miter;stroke-miterlimit:10;stroke-dasharray:none;stroke-opacity:1"
             id="path856" /></g><g
           id="g858"
           transform="translate(218.3516,557.3896)"><path
             d="m 0,0 h -8.696 c -1.133,0 -2.051,0.918 -2.051,2.051 v 8.696 c 0,1.133 0.918,2.051 2.051,2.051 H 0 c 1.133,0 2.051,-0.918 2.051,-2.051 V 2.051 C 2.051,0.918 1.133,0 0,0 Z"
             style="fill:none;stroke:#65c8d0;stroke-width:2;stroke-linecap:butt;stroke-linejoin:miter;stroke-miterlimit:10;stroke-dasharray:none;stroke-opacity:1"
             id="path860" /></g><g
           id="g862"
           transform="translate(200.7539,557.3896)"><path
             d="m 0,0 h -8.696 c -1.133,0 -2.051,0.918 -2.051,2.051 v 8.696 c 0,1.133 0.918,2.051 2.051,2.051 H 0 c 1.133,0 2.051,-0.918 2.051,-2.051 V 2.051 C 2.051,0.918 1.133,0 0,0 Z"
             style="fill:none;stroke:#65c8d0;stroke-width:2;stroke-linecap:butt;stroke-linejoin:miter;stroke-miterlimit:10;stroke-dasharray:none;stroke-opacity:1"
             id="path864" /></g><g
           id="g866"
           transform="translate(235.9487,557.3896)"><path
             d="m 0,0 h -8.696 c -1.133,0 -2.051,0.918 -2.051,2.051 v 8.696 c 0,1.133 0.918,2.051 2.051,2.051 H 0 c 1.133,0 2.051,-0.918 2.051,-2.051 V 2.051 C 2.051,0.918 1.133,0 0,0 Z"
             style="fill:none;stroke:#65c8d0;stroke-width:2;stroke-linecap:butt;stroke-linejoin:miter;stroke-miterlimit:10;stroke-dasharray:none;stroke-opacity:1"
             id="path868" /></g><g
           id="g870"
           transform="translate(165.5591,557.3896)"><path
             d="m 0,0 h -8.696 c -1.133,0 -2.051,0.918 -2.051,2.051 v 8.696 c 0,1.133 0.918,2.051 2.051,2.051 H 0 c 1.133,0 2.051,-0.918 2.051,-2.051 V 2.051 C 2.051,0.918 1.133,0 0,0 Z"
             style="fill:none;stroke:#65c8d0;stroke-width:2;stroke-linecap:butt;stroke-linejoin:miter;stroke-miterlimit:10;stroke-dasharray:none;stroke-opacity:1"
             id="path872" /></g><g
           id="g874"
           transform="translate(147.9614,557.3896)"><path
             d="m 0,0 h -8.696 c -1.133,0 -2.051,0.918 -2.051,2.051 v 8.696 c 0,1.133 0.918,2.051 2.051,2.051 H 0 c 1.133,0 2.051,-0.918 2.051,-2.051 V 2.051 C 2.051,0.918 1.133,0 0,0 Z"
             style="fill:none;stroke:#65c8d0;stroke-width:2;stroke-linecap:butt;stroke-linejoin:miter;stroke-miterlimit:10;stroke-dasharray:none;stroke-opacity:1"
             id="path876" /></g><g
           id="g878"
           transform="translate(546.5,569.5)"><path
             d="m 0,0 20.537,-17.854 h 88.411"
             style="fill:none;stroke:#65c8d0;stroke-width:3;stroke-linecap:butt;stroke-linejoin:miter;stroke-miterlimit:10;stroke-dasharray:none;stroke-opacity:1"
             id="path880" /></g><g
           id="g882"
           transform="translate(541.9229,578.2954)"><path
             d="m 0,0 c 3.083,0 5.582,-2.491 5.582,-5.563 0,-3.072 -2.499,-5.563 -5.582,-5.563 -3.083,0 -5.582,2.491 -5.582,5.563 C -5.582,-2.491 -3.083,0 0,0 Z"
             style="fill:none;stroke:#65c8d0;stroke-width:2;stroke-linecap:butt;stroke-linejoin:miter;stroke-miterlimit:10;stroke-dasharray:none;stroke-opacity:1"
             id="path884" /></g><g
           id="g886"
           transform="translate(657.7178,557.123)"><path
             d="m 0,0 c 3.083,0 5.582,-2.49 5.582,-5.563 0,-3.072 -2.499,-5.562 -5.582,-5.562 -3.083,0 -5.582,2.49 -5.582,5.562 C -5.582,-2.49 -3.083,0 0,0"
             style="fill:#65c8d0;fill-opacity:1;fill-rule:nonzero;stroke:none"
             id="path888" /></g><g
           id="g890"
           transform="translate(657.7178,557.123)"><path
             d="m 0,0 c 3.083,0 5.582,-2.49 5.582,-5.563 0,-3.072 -2.499,-5.562 -5.582,-5.562 -3.083,0 -5.582,2.49 -5.582,5.562 C -5.582,-2.49 -3.083,0 0,0 Z"
             style="fill:none;stroke:#65c8d0;stroke-width:0.75;stroke-linecap:butt;stroke-linejoin:miter;stroke-miterlimit:10;stroke-dasharray:none;stroke-opacity:1"
             id="path892" /></g><g
           id="g894"
           transform="translate(800.8018,541.9062)"><path
             d="m 0,0 c 0,-3.724 -3.02,-6.743 -6.743,-6.743 -3.725,0 -6.743,3.019 -6.743,6.743 0,3.724 3.018,6.743 6.743,6.743 C -3.02,6.743 0,3.724 0,0"
             style="fill:#65c8d0;fill-opacity:1;fill-rule:nonzero;stroke:none"
             id="path896" /></g><g
           id="g898"
           transform="translate(800.8018,541.9062)"><path
             d="m 0,0 c 0,-3.724 -3.02,-6.743 -6.743,-6.743 -3.725,0 -6.743,3.019 -6.743,6.743 0,3.724 3.018,6.743 6.743,6.743 C -3.02,6.743 0,3.724 0,0 Z"
             style="fill:none;stroke:#65c8d0;stroke-width:2;stroke-linecap:butt;stroke-linejoin:miter;stroke-miterlimit:10;stroke-dasharray:none;stroke-opacity:1"
             id="path900" /></g><g
           id="g902"
           transform="translate(802.2998,541.9062)"><path
             d="M 0,0 H 113.886"
             style="fill:none;stroke:#65c8d0;stroke-width:1;stroke-linecap:butt;stroke-linejoin:miter;stroke-miterlimit:10;stroke-dasharray:none;stroke-opacity:1"
             id="path904" /></g><g
           id="g906"
           transform="translate(799.3066,547.0225)"><path
             d="M 0,0 118.374,-1.242"
             style="fill:none;stroke:#65c8d0;stroke-width:1;stroke-linecap:butt;stroke-linejoin:miter;stroke-miterlimit:10;stroke-dasharray:none;stroke-opacity:1"
             id="path908" /></g><g
           id="g910"
           transform="translate(799.3027,537.4106)"><path
             d="M 0,0 H 119.88"
             style="fill:none;stroke:#65c8d0;stroke-width:1;stroke-linecap:butt;stroke-linejoin:miter;stroke-miterlimit:10;stroke-dasharray:none;stroke-opacity:1"
             id="path912" /></g><g
           id="g914"
           transform="translate(940.1611,541.4658)"><path
             d="m 0,0 c 0,-6.207 -5.032,-11.239 -11.239,-11.239 -6.206,0 -11.239,5.032 -11.239,11.239 0,6.207 5.033,11.238 11.239,11.238 C -5.032,11.238 0,6.207 0,0 Z"
             style="fill:none;stroke:#65c8d0;stroke-width:2;stroke-linecap:butt;stroke-linejoin:miter;stroke-miterlimit:10;stroke-dasharray:none;stroke-opacity:1"
             id="path916" /></g><g
           id="g918"
           transform="translate(935.665,541.4658)"><path
             d="m 0,0 c 0,-3.725 -3.019,-6.744 -6.743,-6.744 -3.724,0 -6.743,3.019 -6.743,6.744 0,3.724 3.019,6.743 6.743,6.743 C -3.019,6.743 0,3.724 0,0 Z"
             style="fill:none;stroke:#65c8d0;stroke-width:2;stroke-linecap:butt;stroke-linejoin:miter;stroke-miterlimit:10;stroke-dasharray:none;stroke-opacity:1"
             id="path920" /></g><g
           id="g922"
           transform="translate(930.6084,541.4658)"><path
             d="m 0,0 c 0,-0.931 -0.755,-1.686 -1.687,-1.686 -0.93,0 -1.685,0.755 -1.685,1.686 0,0.931 0.755,1.686 1.685,1.686 C -0.755,1.686 0,0.931 0,0"
             style="fill:#65c8d0;fill-opacity:1;fill-rule:nonzero;stroke:none"
             id="path924" /></g><g
           id="g926"
           transform="translate(930.6084,541.4658)"><path
             d="m 0,0 c 0,-0.931 -0.755,-1.686 -1.687,-1.686 -0.93,0 -1.685,0.755 -1.685,1.686 0,0.931 0.755,1.686 1.685,1.686 C -0.755,1.686 0,0.931 0,0 Z"
             style="fill:none;stroke:#65c8d0;stroke-width:0.5;stroke-linecap:butt;stroke-linejoin:miter;stroke-miterlimit:10;stroke-dasharray:none;stroke-opacity:1"
             id="path928" /></g><g
           id="g930"
           transform="translate(870.6777,556.1416)"><path
             d="m 0,0 h -7.886 c -1.133,0 -2.051,0.918 -2.051,2.051 v 7.886 c 0,1.133 0.918,2.051 2.051,2.051 H 0 c 1.133,0 2.052,-0.918 2.052,-2.051 V 2.051 C 2.052,0.918 1.133,0 0,0 Z"
             style="fill:none;stroke:#65c8d0;stroke-width:2;stroke-linecap:butt;stroke-linejoin:miter;stroke-miterlimit:10;stroke-dasharray:none;stroke-opacity:1"
             id="path932" /></g><g
           id="g934"
           transform="translate(886.1387,556.1416)"><path
             d="m 0,0 h -5.841 c -1.697,0 -3.073,1.376 -3.073,3.074 v 5.841 c 0,1.697 1.376,3.073 3.073,3.073 H 0 c 1.697,0 3.074,-1.376 3.074,-3.073 V 3.074 C 3.074,1.376 1.697,0 0,0 Z"
             style="fill:none;stroke:#65c8d0;stroke-width:2;stroke-linecap:butt;stroke-linejoin:miter;stroke-miterlimit:10;stroke-dasharray:none;stroke-opacity:1"
             id="path936" /></g><g
           id="g938"
           transform="translate(854.1943,556.1416)"><path
             d="m 0,0 h -7.886 c -1.133,0 -2.051,0.918 -2.051,2.051 v 7.886 c 0,1.133 0.918,2.051 2.051,2.051 H 0 c 1.133,0 2.052,-0.918 2.052,-2.051 V 2.051 C 2.052,0.918 1.133,0 0,0 Z"
             style="fill:none;stroke:#65c8d0;stroke-width:2;stroke-linecap:butt;stroke-linejoin:miter;stroke-miterlimit:10;stroke-dasharray:none;stroke-opacity:1"
             id="path940" /></g><g
           id="g942"
           transform="translate(837.7109,556.1416)"><path
             d="m 0,0 h -7.886 c -1.133,0 -2.051,0.918 -2.051,2.051 v 7.886 c 0,1.133 0.918,2.051 2.051,2.051 H 0 c 1.133,0 2.052,-0.918 2.052,-2.051 V 2.051 C 2.052,0.918 1.133,0 0,0 Z"
             style="fill:none;stroke:#65c8d0;stroke-width:2;stroke-linecap:butt;stroke-linejoin:miter;stroke-miterlimit:10;stroke-dasharray:none;stroke-opacity:1"
             id="path944" /></g><g
           id="g946"
           transform="translate(889.2129,562.1357)"><path
             d="M 0,0 H 67.432 L 80.918,-26.973 94.404,0 104.894,-26.973 116.882,0 125.873,-26.973 139.359,0 l 8.992,-26.973 44.954,-0.749"
             style="fill:none;stroke:#65c8d0;stroke-width:3;stroke-linecap:butt;stroke-linejoin:miter;stroke-miterlimit:10;stroke-dasharray:none;stroke-opacity:1"
             id="path948" /></g><g
           id="g950"
           transform="translate(1070.5303,555.3926)"><path
             d="M 0,0 59.809,-0.564 77.921,-29.221"
             style="fill:none;stroke:#65c8d0;stroke-width:3;stroke-linecap:butt;stroke-linejoin:miter;stroke-miterlimit:10;stroke-dasharray:none;stroke-opacity:1"
             id="path952" /></g><g
           id="g954"
           transform="translate(1069.6885,554.6597)"><path
             d="m 0,0 c 0,-5.596 -4.515,-10.132 -10.084,-10.132 -5.568,0 -10.083,4.536 -10.083,10.132 0,5.596 4.515,10.132 10.083,10.132 C -4.515,10.132 0,5.596 0,0 Z"
             style="fill:none;stroke:#65c8d0;stroke-width:3;stroke-linecap:butt;stroke-linejoin:miter;stroke-miterlimit:10;stroke-dasharray:none;stroke-opacity:1"
             id="path956" /></g><g
           id="g958"
           transform="translate(1164.6143,518.0571)"><path
             d="m 0,0 c 0,-5.596 -4.515,-10.132 -10.083,-10.132 -5.569,0 -10.084,4.536 -10.084,10.132 0,5.596 4.515,10.133 10.084,10.133 C -4.515,10.133 0,5.596 0,0 Z"
             style="fill:none;stroke:#65c8d0;stroke-width:3;stroke-linecap:butt;stroke-linejoin:miter;stroke-miterlimit:10;stroke-dasharray:none;stroke-opacity:1"
             id="path960" /></g><g
           id="g970"
           transform="translate(1093.6143,534.0708)"><path
             d="m 0,0 c 0,-3.56 -2.744,-6.446 -6.129,-6.446 -3.386,0 -6.13,2.886 -6.13,6.446 0,3.56 2.744,6.446 6.13,6.446 C -2.744,6.446 0,3.56 0,0 Z"
             style="fill:none;stroke:#65c8d0;stroke-width:3;stroke-linecap:butt;stroke-linejoin:miter;stroke-miterlimit:10;stroke-dasharray:none;stroke-opacity:1"
             id="path972" /></g><g
           id="g974"
           transform="translate(1173.1768,547.8999)"><path
             d="M 0,0 H 52.447 V -140.109"
             style="fill:none;stroke:#65c8d0;stroke-width:3;stroke-linecap:butt;stroke-linejoin:miter;stroke-miterlimit:10;stroke-dasharray:none;stroke-opacity:1"
             id="path976" /></g><g
           id="g978"
           transform="translate(1176.1738,547.7705)"><path
             d="m 0,0 c 0,-3.382 -2.627,-6.124 -5.868,-6.124 -3.241,0 -5.868,2.742 -5.868,6.124 0,3.382 2.627,6.124 5.868,6.124 C -2.627,6.124 0,3.382 0,0"
             style="fill:#65c8d0;fill-opacity:1;fill-rule:nonzero;stroke:none"
             id="path980" /></g><g
           id="g982"
           transform="translate(1176.1738,547.7705)"><path
             d="m 0,0 c 0,-3.382 -2.627,-6.124 -5.868,-6.124 -3.241,0 -5.868,2.742 -5.868,6.124 0,3.382 2.627,6.124 5.868,6.124 C -2.627,6.124 0,3.382 0,0 Z"
             style="fill:none;stroke:#65c8d0;stroke-width:3;stroke-linecap:butt;stroke-linejoin:miter;stroke-miterlimit:10;stroke-dasharray:none;stroke-opacity:1"
             id="path984" /></g><g
           id="g986"
           transform="translate(1233,400.9771)"><path
             d="m 0,0 c 0,-4.099 -3.328,-7.421 -7.435,-7.421 -4.105,0 -7.434,3.322 -7.434,7.421 0,4.099 3.329,7.422 7.434,7.422 C -3.328,7.422 0,4.099 0,0 Z"
             style="fill:none;stroke:#65c8d0;stroke-width:3;stroke-linecap:butt;stroke-linejoin:miter;stroke-miterlimit:10;stroke-dasharray:none;stroke-opacity:1"
             id="path988" /></g><g
           id="g990"
           transform="translate(730.0781,476.8271)"><path
             d="m 0,0 16.656,3.173 c 14.345,-13.548 0.797,-36.658 0.797,-36.658 L 3.109,-35.079 c 7.666,19.165 -2.362,33.898 -3.136,34.992 l -4.756,-15.629 c 1.389,-2.58 3.665,-8.971 0.72,-20.159 l -11.954,-0.797 c 0,0 4.782,2.39 10.36,22.313 0,0 0.305,-0.359 0.716,-1.074 M 61.805,-65.077 29.286,25.138 C 26.289,33.08 25.239,36.977 24.19,41.323 h -39.113 c -0.749,-4.346 -2.098,-8.842 -4.795,-16.185 l -32.369,-90.215 c -3.597,-10.19 -4.946,-13.787 -7.193,-18.282 h 35.066 c 0.75,5.544 1.799,10.19 3.747,16.184 l 3.75,11.809 c -2.394,2.655 -4.803,5.879 -7.209,9.766 l 60.362,5.249 c 0,0 -3.321,-7.184 -10.014,-13.976 l -0.133,-0.11 4.046,-12.738 c 1.499,-5.095 2.397,-8.991 3.597,-16.184 h 35.066 c -1.947,4.196 -4.346,10.339 -7.193,18.282"
             style="fill:#65c8d0;fill-opacity:1;fill-rule:nonzero;stroke:none"
             id="path992" /></g><g
           id="g994"
           transform="translate(730.0781,476.8271)"><path
             d="m 0,0 16.656,3.173 c 14.345,-13.548 0.797,-36.658 0.797,-36.658 L 3.109,-35.079 c 7.666,19.165 -2.362,33.898 -3.136,34.992 l -4.756,-15.629 c 1.389,-2.58 3.665,-8.971 0.72,-20.159 l -11.954,-0.797 c 0,0 4.782,2.39 10.36,22.313 0,0 0.305,-0.359 0.716,-1.074 M 61.805,-65.077 29.286,25.138 C 26.289,33.08 25.239,36.977 24.19,41.323 h -39.113 c -0.749,-4.346 -2.098,-8.842 -4.795,-16.185 l -32.369,-90.215 c -3.597,-10.19 -4.946,-13.787 -7.193,-18.282 h 35.066 c 0.75,5.544 1.799,10.19 3.747,16.184 l 3.75,11.809 c -2.394,2.655 -4.803,5.879 -7.209,9.766 l 60.362,5.249 c 0,0 -3.321,-7.184 -10.014,-13.976 l -0.133,-0.11 4.046,-12.738 c 1.499,-5.095 2.397,-8.991 3.597,-16.184 h 35.066 c -1.947,4.196 -4.346,10.339 -7.193,18.282 z"
             style="fill:none;stroke:#65c8d0;stroke-width:1;stroke-linecap:butt;stroke-linejoin:miter;stroke-miterlimit:10;stroke-dasharray:none;stroke-opacity:1"
             id="path996" /></g><g
           id="g998"
           transform="translate(878.3447,518.1499)"><path
             d="m 0,0 h -65.638 c -9.141,0 -17.383,0.449 -22.329,1.049 v -3.834 c 1.561,0.669 3.286,1.049 5.107,1.049 6.912,0 12.515,-5.359 12.515,-11.97 0,-6.611 -5.603,-11.97 -12.515,-11.97 -1.821,0 -3.546,0.38 -5.107,1.049 v -2.947 c 10.64,0.899 13.188,1.049 22.629,1.049 h 17.684 v -75.529 c 0,-9.441 -0.3,-15.585 -1.2,-22.628 h 33.119 c -0.899,7.043 -1.2,13.637 -1.2,22.628 v 75.529 H 0 c 10.79,0 16.634,-0.3 23.378,-1.049 V 1.049 C 16.484,0.299 10.49,0 0,0"
             style="fill:#65c8d0;fill-opacity:1;fill-rule:nonzero;stroke:none"
             id="path1000" /></g><g
           id="g1002"
           transform="translate(878.3447,518.1499)"><path
             d="m 0,0 h -65.638 c -9.141,0 -17.383,0.449 -22.329,1.049 v -3.834 c 1.561,0.669 3.286,1.049 5.107,1.049 6.912,0 12.515,-5.359 12.515,-11.97 0,-6.611 -5.603,-11.97 -12.515,-11.97 -1.821,0 -3.546,0.38 -5.107,1.049 v -2.947 c 10.64,0.899 13.188,1.049 22.629,1.049 h 17.684 v -75.529 c 0,-9.441 -0.3,-15.585 -1.2,-22.628 h 33.119 c -0.899,7.043 -1.2,13.637 -1.2,22.628 v 75.529 H 0 c 10.79,0 16.634,-0.3 23.378,-1.049 V 1.049 C 16.484,0.299 10.49,0 0,0 Z"
             style="fill:none;stroke:#65c8d0;stroke-width:1;stroke-linecap:butt;stroke-linejoin:miter;stroke-miterlimit:10;stroke-dasharray:none;stroke-opacity:1"
             id="path1004" /></g><path
           sodipodi:nodetypes="ccccc"
           id="path259"
           d="m 501.47141,518.1499 h 32.96899 l -1.20069,-15.94072 -30.84002,-0.0122 z"
           style="fill:#65c8d0;stroke:#65c8d0;stroke-width:0.75000000000000000px;stroke-linecap:butt;stroke-linejoin:miter;stroke-opacity:1;fill-opacity:1" /><path
           sodipodi:nodetypes="ccccc"
           id="path261"
           d="m 532.92908,495.99653 v -16.15285 l -30.21876,0.18595 -0.31063,16.11821 z"
           style="fill:#65c8d0;stroke:#65c8d0;stroke-width:0.75000000000000000px;stroke-linecap:butt;stroke-linejoin:miter;stroke-opacity:1;fill-opacity:1" /><path
           sodipodi:nodetypes="ccccc"
           id="path263"
           d="m 533.23971,474.87357 v -16.15286 l -30.52939,0.0193 -1e-5,16.17237 z"
           style="fill:#65c8d0;stroke:#65c8d0;stroke-width:0.75000000000000000px;stroke-linecap:butt;stroke-linejoin:miter;stroke-opacity:1;fill-opacity:1" /><path
           sodipodi:nodetypes="ccccc"
           id="path265"
           d="m 532.92908,454.06124 0,-17.39538 -30.13128,0 -0.0875,17.57913 z"
           style="fill:#65c8d0;stroke:#65c8d0;stroke-width:0.75000000000000000px;stroke-linecap:butt;stroke-linejoin:miter;stroke-opacity:1;fill-opacity:1" /><path
           sodipodi:nodetypes="ccccc"
           id="path267"
           d="m 532.92908,431.69575 v -17.70601 l -30.44191,0 -10e-6,17.70602 z"
           style="fill:#65c8d0;stroke:#65c8d0;stroke-width:0.75000000000000000px;stroke-linecap:butt;stroke-linejoin:miter;stroke-opacity:1;fill-opacity:1" /><path
           sodipodi:nodetypes="ccccc"
           id="path269"
           d="m 533.23971,409.01962 1.20069,-15.55173 h -32.96899 l 1.01575,15.55173 z"
           style="fill:#65c8d0;stroke:#65c8d0;stroke-width:0.75000000000000000px;stroke-linecap:butt;stroke-linejoin:miter;stroke-opacity:1;fill-opacity:1" /></g></g></g></svg>
