<?xml version="1.0" encoding="UTF-8" standalone="no"?>
<svg
   xmlns:dc="http://purl.org/dc/elements/1.1/"
   xmlns:cc="http://creativecommons.org/ns#"
   xmlns:rdf="http://www.w3.org/1999/02/22-rdf-syntax-ns#"
   xmlns:svg="http://www.w3.org/2000/svg"
   xmlns="http://www.w3.org/2000/svg"
   xmlns:sodipodi="http://sodipodi.sourceforge.net/DTD/sodipodi-0.dtd"
   xmlns:inkscape="http://www.inkscape.org/namespaces/inkscape"
   inkscape:version="1.0 (4035a4f, 2020-05-01)"
   sodipodi:docname="nav_sticker.svg"
   viewBox="0 0 1505.3338 256.30969"
   height="256.30969"
   width="1505.3337"
   xml:space="preserve"
   id="svg508"
   version="1.1"><metadata
     id="metadata514"><rdf:RDF><cc:Work
         rdf:about=""><dc:format>image/svg+xml</dc:format><dc:type
           rdf:resource="http://purl.org/dc/dcmitype/StillImage" /><dc:title></dc:title></cc:Work></rdf:RDF></metadata><defs
     id="defs512"><clipPath
       id="clipPath596"
       clipPathUnits="userSpaceOnUse"><path
         id="path594"
         d="M 0,768 H 1366 V 0 H 0 Z" /></clipPath></defs><sodipodi:namedview
     inkscape:current-layer="g516"
     inkscape:window-maximized="0"
     inkscape:window-y="23"
     inkscape:window-x="0"
     inkscape:cy="264.46956"
     inkscape:cx="770.00036"
     inkscape:zoom="0.58203125"
     fit-margin-bottom="0"
     fit-margin-right="0"
     fit-margin-left="0"
     fit-margin-top="0"
     showgrid="false"
     id="namedview510"
     inkscape:window-height="781"
     inkscape:window-width="1440"
     inkscape:pageshadow="2"
     inkscape:pageopacity="0"
     guidetolerance="10"
     gridtolerance="10"
     objecttolerance="10"
     borderopacity="1"
     bordercolor="#666666"
     pagecolor="#ffffff" /><g
     transform="matrix(1.3333333,0,0,-1.3333333,-140.66626,776.46956)"
     inkscape:label="nav_sticker (1)"
     inkscape:groupmode="layer"
     id="g516"><g
       transform="translate(1000.1007,412.2864)"
       id="g518"><path
         id="path520"
         style="fill:#ffffff;fill-opacity:1;fill-rule:nonzero;stroke:none"
         d="M 0,0 V 80.919 Z" /></g><g
       transform="translate(1000.1006,493.2051)"
       id="g522"><path
         id="path524"
         style="fill:none;stroke:#65c8d0;stroke-width:0.75;stroke-linecap:butt;stroke-linejoin:miter;stroke-miterlimit:10;stroke-dasharray:none;stroke-opacity:1"
         d="M 0,0 V -80.918" /></g><g
       transform="translate(1006.8435,413.0352)"
       id="g526"><path
         id="path528"
         style="fill:#ffffff;fill-opacity:1;fill-rule:nonzero;stroke:none"
         d="M 0,0 V 82.418 Z" /></g><g
       transform="translate(1006.8437,495.4531)"
       id="g530"><path
         id="path532"
         style="fill:none;stroke:#65c8d0;stroke-width:1;stroke-linecap:butt;stroke-linejoin:miter;stroke-miterlimit:10;stroke-dasharray:none;stroke-opacity:1"
         d="M 0,0 V -82.417" /></g><g
       transform="translate(1014.3369,405.5436)"
       id="g534"><path
         id="path536"
         style="fill:#ffffff;fill-opacity:1;fill-rule:nonzero;stroke:none"
         d="M 0,0 -0.665,89.909 Z" /></g><g
       transform="translate(1013.6719,495.4531)"
       id="g538"><path
         id="path540"
         style="fill:none;stroke:#65c8d0;stroke-width:1;stroke-linecap:butt;stroke-linejoin:miter;stroke-miterlimit:10;stroke-dasharray:none;stroke-opacity:1"
         d="M 0,0 0.665,-89.91" /></g><g
       transform="translate(1021.8294,416.0331)"
       id="g542"><path
         id="path544"
         style="fill:#ffffff;fill-opacity:1;fill-rule:nonzero;stroke:none"
         d="M 0,0 V 79.42 Z" /></g><g
       transform="translate(1021.8291,495.4531)"
       id="g546"><path
         id="path548"
         style="fill:none;stroke:#65c8d0;stroke-width:1;stroke-linecap:butt;stroke-linejoin:miter;stroke-miterlimit:10;stroke-dasharray:none;stroke-opacity:1"
         d="M 0,0 V -79.42" /></g><g
       transform="translate(1029.3209,413.0352)"
       id="g550"><path
         id="path552"
         style="fill:#ffffff;fill-opacity:1;fill-rule:nonzero;stroke:none"
         d="M 0,0 -0.522,81.173 Z" /></g><g
       transform="translate(1028.7988,494.208)"
       id="g554"><path
         id="path556"
         style="fill:none;stroke:#65c8d0;stroke-width:1;stroke-linecap:butt;stroke-linejoin:miter;stroke-miterlimit:10;stroke-dasharray:none;stroke-opacity:1"
         d="M 0,0 0.522,-81.172" /></g><g
       transform="translate(1036.1816,412.9092)"
       id="g558"><path
         id="path560"
         style="fill:#ffffff;fill-opacity:1;fill-rule:nonzero;stroke:none"
         d="M 0,0 -0.523,81.172 Z" /></g><g
       transform="translate(1035.6592,494.0811)"
       id="g562"><path
         id="path564"
         style="fill:none;stroke:#65c8d0;stroke-width:1;stroke-linecap:butt;stroke-linejoin:miter;stroke-miterlimit:10;stroke-dasharray:none;stroke-opacity:1"
         d="M 0,0 0.522,-81.172" /></g><g
       transform="translate(1043.675,415.9062)"
       id="g566"><path
         id="path568"
         style="fill:#ffffff;fill-opacity:1;fill-rule:nonzero;stroke:none"
         d="M 0,0 -0.524,81.172 Z" /></g><g
       transform="translate(1043.1514,497.0781)"
       id="g570"><path
         id="path572"
         style="fill:none;stroke:#65c8d0;stroke-width:1;stroke-linecap:butt;stroke-linejoin:miter;stroke-miterlimit:10;stroke-dasharray:none;stroke-opacity:1"
         d="M 0,0 0.523,-81.172" /></g><g
       transform="translate(994.2246,423.3987)"
       id="g574"><path
         id="path576"
         style="fill:#ffffff;fill-opacity:1;fill-rule:nonzero;stroke:none"
         d="M 0,0 -0.524,81.172 Z" /></g><g
       transform="translate(993.7012,504.5708)"
       id="g578"><path
         id="path580"
         style="fill:none;stroke:#65c8d0;stroke-width:1;stroke-linecap:butt;stroke-linejoin:miter;stroke-miterlimit:10;stroke-dasharray:none;stroke-opacity:1"
         d="M 0,0 0.523,-81.172" /></g><g
       transform="translate(1049.6682,400.9212)"
       id="g582"><path
         id="path584"
         style="fill:#ffffff;fill-opacity:1;fill-rule:nonzero;stroke:none"
         d="M 0,0 -0.523,81.172 Z" /></g><g
       transform="translate(1049.1455,482.0933)"
       id="g586"><path
         id="path588"
         style="fill:none;stroke:#65c8d0;stroke-width:1;stroke-linecap:butt;stroke-linejoin:miter;stroke-miterlimit:10;stroke-dasharray:none;stroke-opacity:1"
         d="M 0,0 0.522,-81.172" /></g><g
       id="g590"><g
         clip-path="url(#clipPath596)"
         id="g592"><g
           transform="translate(195.1855,456.8579)"
           id="g598"><path
             id="path600"
             style="fill:#65c8d0;fill-opacity:1;fill-rule:nonzero;stroke:none"
             d="m 0,0 c 4.346,-6.444 7.193,-11.239 10.79,-17.833 -0.6,6.893 -0.9,13.787 -0.9,22.179 v 34.167 c 0,9.891 -0.299,15.885 -1.198,22.779 H 40.611 C 39.712,54.548 39.412,48.254 39.412,38.513 v -79.575 c 0,-9.141 0.45,-16.034 1.199,-22.328 H 7.792 c -2.697,5.695 -6.144,11.239 -11.239,19.032 l -27.723,41.81 c -4.047,5.994 -6.594,10.49 -10.79,18.433 0.749,-6.744 1.049,-14.987 1.049,-22.329 v -33.568 c 0,-10.341 0.3,-16.934 1.198,-23.378 h -31.92 c 0.9,5.845 1.199,12.438 1.199,23.527 v 78.826 c 0,8.692 -0.299,15.435 -1.199,22.329 h 32.52 c 1.499,-4.046 4.796,-10.041 10.639,-18.733 z" /></g><g
           transform="translate(195.1855,456.8579)"
           id="g602"><path
             id="path604"
             style="fill:none;stroke:#65c8d0;stroke-width:1;stroke-linecap:butt;stroke-linejoin:miter;stroke-miterlimit:10;stroke-dasharray:none;stroke-opacity:1"
             d="m 0,0 c 4.346,-6.444 7.193,-11.239 10.79,-17.833 -0.6,6.893 -0.9,13.787 -0.9,22.179 v 34.167 c 0,9.891 -0.299,15.885 -1.198,22.779 H 40.611 C 39.712,54.548 39.412,48.254 39.412,38.513 v -79.575 c 0,-9.141 0.45,-16.034 1.199,-22.328 H 7.792 c -2.697,5.695 -6.144,11.239 -11.239,19.032 l -27.723,41.81 c -4.047,5.994 -6.594,10.49 -10.79,18.433 0.749,-6.744 1.049,-14.987 1.049,-22.329 v -33.568 c 0,-10.341 0.3,-16.934 1.198,-23.378 h -31.92 c 0.9,5.845 1.199,12.438 1.199,23.527 v 78.826 c 0,8.692 -0.299,15.435 -1.199,22.329 h 32.52 c 1.499,-4.046 4.796,-10.041 10.639,-18.733 z" /></g><g
           transform="translate(310.2681,492.5239)"
           id="g606"><path
             id="path608"
             style="fill:#65c8d0;fill-opacity:1;fill-rule:nonzero;stroke:none"
             d="m 0,0 -13.937,-44.958 h 28.173 z m 29.222,-99.056 c -1.199,7.193 -2.098,11.089 -3.596,16.184 l -4.046,12.739 h -42.71 l -4.047,-12.739 c -1.948,-5.994 -2.997,-10.64 -3.746,-16.184 H -63.99 c 2.248,4.495 3.596,8.092 7.194,18.283 l 32.369,90.214 c 2.698,7.343 4.046,11.839 4.795,16.185 H 19.481 C 20.53,21.28 21.58,17.383 24.577,9.441 l 32.519,-90.214 c 2.847,-7.943 5.245,-14.087 7.193,-18.283 z" /></g><g
           transform="translate(310.2681,492.5239)"
           id="g610"><path
             id="path612"
             style="fill:none;stroke:#65c8d0;stroke-width:1;stroke-linecap:butt;stroke-linejoin:miter;stroke-miterlimit:10;stroke-dasharray:none;stroke-opacity:1"
             d="m 0,0 -13.937,-44.958 h 28.173 z m 29.222,-99.056 c -1.199,7.193 -2.098,11.089 -3.596,16.184 l -4.046,12.739 h -42.71 l -4.047,-12.739 c -1.948,-5.994 -2.997,-10.64 -3.746,-16.184 H -63.99 c 2.248,4.495 3.596,8.092 7.194,18.283 l 32.369,90.214 c 2.698,7.343 4.046,11.839 4.795,16.185 H 19.481 C 20.53,21.28 21.58,17.383 24.577,9.441 l 32.519,-90.214 c 2.847,-7.943 5.245,-14.087 7.193,-18.283 z" /></g><g
           transform="translate(425.0532,429.8828)"
           id="g614"><path
             id="path616"
             style="fill:#65c8d0;fill-opacity:1;fill-rule:nonzero;stroke:none"
             d="M 0,0 C 1.199,-4.046 1.199,-4.046 2.848,-10.34 4.646,-3.746 4.946,-2.847 5.695,0 l 21.729,72.082 c 1.948,6.893 2.997,11.089 3.448,16.185 H 66.087 C 63.99,83.771 62.641,80.325 58.894,69.984 L 27.125,-20.23 c -2.548,-7.343 -4.047,-12.439 -4.796,-16.185 h -38.963 c -0.749,3.896 -2.248,8.992 -4.796,16.185 l -31.919,90.214 c -2.997,8.692 -4.497,12.438 -7.044,18.283 h 35.067 c 0.599,-4.795 1.948,-10.64 3.597,-16.185 z" /></g><g
           transform="translate(425.0532,429.8828)"
           id="g618"><path
             id="path620"
             style="fill:none;stroke:#65c8d0;stroke-width:1;stroke-linecap:butt;stroke-linejoin:miter;stroke-miterlimit:10;stroke-dasharray:none;stroke-opacity:1"
             d="M 0,0 C 1.199,-4.046 1.199,-4.046 2.848,-10.34 4.646,-3.746 4.946,-2.847 5.695,0 l 21.729,72.082 c 1.948,6.893 2.997,11.089 3.448,16.185 H 66.087 C 63.99,83.771 62.641,80.325 58.894,69.984 L 27.125,-20.23 c -2.548,-7.343 -4.047,-12.439 -4.796,-16.185 h -38.963 c -0.749,3.896 -2.248,8.992 -4.796,16.185 l -31.919,90.214 c -2.997,8.692 -4.497,12.438 -7.044,18.283 h 35.067 c 0.599,-4.795 1.948,-10.64 3.597,-16.185 z" /></g><g
           transform="translate(534.4404,518.1499)"
           id="g622"><path
             id="path624"
             style="fill:#65c8d0;fill-opacity:1;fill-rule:nonzero;stroke:none"
             d="m 0,0 c -0.899,-6.145 -1.199,-11.24 -1.199,-22.179 v -80.324 c 0,-10.341 0.3,-15.885 1.199,-22.179 h -32.969 c 0.899,5.845 1.199,12.139 1.199,22.179 v 80.324 c 0,11.239 -0.3,15.585 -1.199,22.179 z" /></g><g
           transform="translate(534.4404,518.1499)"
           id="g626"><path
             id="path628"
             style="fill:none;stroke:#65c8d0;stroke-width:1;stroke-linecap:butt;stroke-linejoin:miter;stroke-miterlimit:10;stroke-dasharray:none;stroke-opacity:1"
             d="m 0,0 c -0.899,-6.145 -1.199,-11.24 -1.199,-22.179 v -80.324 c 0,-10.341 0.3,-15.885 1.199,-22.179 h -32.969 c 0.899,5.845 1.199,12.139 1.199,22.179 v 80.324 c 0,11.239 -0.3,15.585 -1.199,22.179 z" /></g><g
           transform="translate(625.6997,439.0244)"
           id="g630"><path
             id="path632"
             style="fill:#65c8d0;fill-opacity:1;fill-rule:nonzero;stroke:none"
             d="m 0,0 c -7.643,0 -10.19,-0.15 -14.835,-0.749 v 26.525 c 5.544,-0.75 9.141,-0.899 19.63,-0.899 h 11.989 c 7.643,0 13.188,0.149 19.782,0.749 -0.749,-5.695 -1.049,-10.64 -1.049,-20.381 v -16.784 c 0,-10.64 0.15,-15.435 1.049,-22.329 -8.242,-5.245 -12.289,-7.193 -19.033,-9.441 -9.74,-3.297 -20.68,-5.095 -31.769,-5.095 -19.032,0 -33.868,5.245 -44.508,16.034 -11.389,11.39 -17.683,29.223 -17.683,49.754 0,39.412 23.827,64.438 61.592,64.438 18.732,0 32.968,-5.843 42.858,-17.832 4.047,-4.646 6.444,-9.142 8.842,-16.335 L 6.295,40.612 c -1.649,5.394 -3.447,8.242 -6.744,10.79 -3.897,3.147 -8.842,4.645 -15.136,4.645 -19.182,0 -29.672,-13.937 -29.672,-39.113 0,-13.937 3.147,-24.726 9.142,-31.32 4.795,-5.246 12.137,-8.093 21.579,-8.093 7.943,0 14.387,1.649 21.729,5.395 L 7.193,0 Z" /></g><g
           transform="translate(625.6997,439.0244)"
           id="g634"><path
             id="path636"
             style="fill:none;stroke:#65c8d0;stroke-width:1;stroke-linecap:butt;stroke-linejoin:miter;stroke-miterlimit:10;stroke-dasharray:none;stroke-opacity:1"
             d="m 0,0 c -7.643,0 -10.19,-0.15 -14.835,-0.749 v 26.525 c 5.544,-0.75 9.141,-0.899 19.63,-0.899 h 11.989 c 7.643,0 13.188,0.149 19.782,0.749 -0.749,-5.695 -1.049,-10.64 -1.049,-20.381 v -16.784 c 0,-10.64 0.15,-15.435 1.049,-22.329 -8.242,-5.245 -12.289,-7.193 -19.033,-9.441 -9.74,-3.297 -20.68,-5.095 -31.769,-5.095 -19.032,0 -33.868,5.245 -44.508,16.034 -11.389,11.39 -17.683,29.223 -17.683,49.754 0,39.412 23.827,64.438 61.592,64.438 18.732,0 32.968,-5.843 42.858,-17.832 4.047,-4.646 6.444,-9.142 8.842,-16.335 L 6.295,40.612 c -1.649,5.394 -3.447,8.242 -6.744,10.79 -3.897,3.147 -8.842,4.645 -15.136,4.645 -19.182,0 -29.672,-13.937 -29.672,-39.113 0,-13.937 3.147,-24.726 9.142,-31.32 4.795,-5.246 12.137,-8.093 21.579,-8.093 7.943,0 14.387,1.649 21.729,5.395 L 7.193,0 Z" /></g><g
           transform="translate(946.2236,518.1499)"
           id="g638"><path
             id="path640"
             style="fill:#65c8d0;fill-opacity:1;fill-rule:nonzero;stroke:none"
             d="m 0,0 c -0.899,-6.145 -1.199,-11.24 -1.199,-22.179 v -80.324 c 0,-10.341 0.3,-15.885 1.199,-22.179 h -32.97 c 0.9,5.845 1.199,12.139 1.199,22.179 v 80.324 c 0,11.239 -0.299,15.585 -1.199,22.179 z" /></g><g
           transform="translate(946.2236,518.1499)"
           id="g642"><path
             id="path644"
             style="fill:none;stroke:#65c8d0;stroke-width:1;stroke-linecap:butt;stroke-linejoin:miter;stroke-miterlimit:10;stroke-dasharray:none;stroke-opacity:1"
             d="m 0,0 c -0.899,-6.145 -1.199,-11.24 -1.199,-22.179 v -80.324 c 0,-10.341 0.3,-15.885 1.199,-22.179 h -32.97 c 0.9,5.845 1.199,12.139 1.199,22.179 v 80.324 c 0,11.239 -0.299,15.585 -1.199,22.179 z" /></g><g
           transform="translate(1050.8193,456.1079)"
           id="g646"><path
             id="path648"
             style="fill:#65c8d0;fill-opacity:1;fill-rule:nonzero;stroke:none"
             d="m 0,0 c 0,24.277 -11.089,38.964 -29.222,38.964 -18.282,0 -29.521,-14.837 -29.521,-38.964 0,-24.426 11.239,-39.562 29.521,-39.562 C -11.089,-39.562 0,-24.577 0,0 m 31.172,0.3 c 0,-39.562 -24.128,-65.788 -60.543,-65.788 -36.716,0 -60.393,25.626 -60.393,65.339 0,39.562 23.677,64.888 60.542,64.888 36.866,0 60.394,-25.176 60.394,-64.439" /></g><g
           transform="translate(1050.8193,456.1079)"
           id="g650"><path
             id="path652"
             style="fill:none;stroke:#65c8d0;stroke-width:1;stroke-linecap:butt;stroke-linejoin:miter;stroke-miterlimit:10;stroke-dasharray:none;stroke-opacity:1"
             d="m 0,0 c 0,24.277 -11.089,38.964 -29.222,38.964 -18.282,0 -29.521,-14.837 -29.521,-38.964 0,-24.426 11.239,-39.562 29.521,-39.562 C -11.089,-39.562 0,-24.577 0,0 Z m 31.172,0.3 c 0,-39.562 -24.128,-65.788 -60.543,-65.788 -36.716,0 -60.393,25.626 -60.393,65.339 0,39.562 23.677,64.888 60.542,64.888 36.866,0 60.394,-25.176 60.394,-64.439 z" /></g><g
           transform="translate(1168.5996,456.8579)"
           id="g654"><path
             id="path656"
             style="fill:#65c8d0;fill-opacity:1;fill-rule:nonzero;stroke:none"
             d="M 0,0 C 4.346,-6.444 7.193,-11.239 10.79,-17.833 10.19,-10.94 9.891,-4.046 9.891,4.346 v 34.167 c 0,9.891 -0.3,15.885 -1.199,22.779 H 40.611 C 39.713,54.548 39.412,48.254 39.412,38.513 v -79.575 c 0,-9.141 0.449,-16.034 1.199,-22.328 H 7.794 c -2.699,5.695 -6.146,11.239 -11.24,19.032 l -27.724,41.81 c -4.047,5.994 -6.595,10.49 -10.79,18.433 0.75,-6.744 1.048,-14.987 1.048,-22.329 v -33.568 c 0,-10.341 0.3,-16.934 1.2,-23.378 h -31.921 c 0.901,5.845 1.199,12.438 1.199,23.527 v 78.826 c 0,8.692 -0.298,15.435 -1.199,22.329 h 32.52 c 1.498,-4.046 4.795,-10.041 10.639,-18.733 z" /></g><g
           transform="translate(1168.5996,456.8579)"
           id="g658"><path
             id="path660"
             style="fill:none;stroke:#65c8d0;stroke-width:1;stroke-linecap:butt;stroke-linejoin:miter;stroke-miterlimit:10;stroke-dasharray:none;stroke-opacity:1"
             d="M 0,0 C 4.346,-6.444 7.193,-11.239 10.79,-17.833 10.19,-10.94 9.891,-4.046 9.891,4.346 v 34.167 c 0,9.891 -0.3,15.885 -1.199,22.779 H 40.611 C 39.713,54.548 39.412,48.254 39.412,38.513 v -79.575 c 0,-9.141 0.449,-16.034 1.199,-22.328 H 7.794 c -2.699,5.695 -6.146,11.239 -11.24,19.032 l -27.724,41.81 c -4.047,5.994 -6.595,10.49 -10.79,18.433 0.75,-6.744 1.048,-14.987 1.048,-22.329 v -33.568 c 0,-10.341 0.3,-16.934 1.2,-23.378 h -31.921 c 0.901,5.845 1.199,12.438 1.199,23.527 v 78.826 c 0,8.692 -0.298,15.435 -1.199,22.329 h 32.52 c 1.498,-4.046 4.795,-10.041 10.639,-18.733 z" /></g><path
           id="path662"
           style="fill:#ffffff;fill-opacity:1;fill-rule:nonzero;stroke:none"
           d="m 541.562,454.245 h -41.958 v 4.495 h 41.958 z" /><g
           transform="translate(795.4844,521.4141)"
           id="g664"><path
             id="path666"
             style="fill:#65c8d0;fill-opacity:1;fill-rule:nonzero;stroke:none"
             d="m 0,0 c -9.657,0 -17.515,-7.613 -17.515,-16.97 0,-9.358 7.858,-16.97 17.515,-16.97 9.658,0 17.516,7.612 17.516,16.97 C 17.516,-7.613 9.658,0 0,0 m 0,-5 c 6.912,0 12.516,-5.359 12.516,-11.97 0,-6.611 -5.604,-11.97 -12.516,-11.97 -6.912,0 -12.515,5.359 -12.515,11.97 0,6.611 5.603,11.97 12.515,11.97" /></g><g
           transform="translate(690,527)"
           id="g668"><path
             id="path670"
             style="fill:none;stroke:#65c8d0;stroke-width:4;stroke-linecap:butt;stroke-linejoin:miter;stroke-miterlimit:10;stroke-dasharray:none;stroke-opacity:1"
             d="M 0,0 12.65,14.906 64,15" /></g><g
           transform="translate(774.5781,541.5493)"
           id="g672"><path
             id="path674"
             style="fill:none;stroke:#65c8d0;stroke-width:3;stroke-linecap:butt;stroke-linejoin:miter;stroke-miterlimit:10;stroke-dasharray:none;stroke-opacity:1"
             d="m 0,0 c 0,-5.596 -4.515,-10.133 -10.083,-10.133 -5.569,0 -10.084,4.537 -10.084,10.133 0,5.596 4.515,10.132 10.084,10.132 C -4.515,10.132 0,5.596 0,0 Z" /></g><g
           transform="translate(693.3164,518.2695)"
           id="g676"><path
             id="path678"
             style="fill:none;stroke:#65c8d0;stroke-width:3;stroke-linecap:butt;stroke-linejoin:miter;stroke-miterlimit:10;stroke-dasharray:none;stroke-opacity:1"
             d="m 0,0 c 0,-5.596 -4.515,-10.132 -10.083,-10.132 -5.569,0 -10.084,4.536 -10.084,10.132 0,5.596 4.515,10.132 10.084,10.132 C -4.515,10.132 0,5.596 0,0 Z" /></g><g
           transform="translate(253.8521,560.6372)"
           id="g680"><path
             id="path682"
             style="fill:none;stroke:#65c8d0;stroke-width:2;stroke-linecap:butt;stroke-linejoin:miter;stroke-miterlimit:10;stroke-dasharray:none;stroke-opacity:1"
             d="M 0,0 -5.994,-8.991 H -122.876" /></g><g
           transform="translate(115.9907,538.1597)"
           id="g684"><path
             id="path686"
             style="fill:none;stroke:#65c8d0;stroke-width:3;stroke-linecap:butt;stroke-linejoin:miter;stroke-miterlimit:10;stroke-dasharray:none;stroke-opacity:1"
             d="M 0,0 -8.991,-17.981 V -145.354" /></g><g
           transform="translate(262.8433,564.0869)"
           id="g688"><path
             id="path690"
             style="fill:#65c8d0;fill-opacity:1;fill-rule:nonzero;stroke:none"
             d="m 0,0 c 0,-3.561 -2.744,-6.447 -6.129,-6.447 -3.386,0 -6.129,2.886 -6.129,6.447 0,3.56 2.743,6.446 6.129,6.446 C -2.744,6.446 0,3.56 0,0" /></g><g
           transform="translate(405.1997,571.127)"
           id="g692"><path
             id="path694"
             style="fill:none;stroke:#65c8d0;stroke-width:4;stroke-linecap:butt;stroke-linejoin:miter;stroke-miterlimit:10;stroke-dasharray:none;stroke-opacity:1"
             d="m 0,0 h -133.354 v -29.97 h -133.377 l -4.496,-8.991" /></g><g
           transform="translate(297.1992,534.6523)"
           id="g696"><path
             id="path698"
             style="fill:#65c8d0;fill-opacity:1;fill-rule:nonzero;stroke:none"
             d="m 0,0 c 0.542,-2.423 -0.999,-4.83 -3.441,-5.375 -2.442,-0.546 -4.861,0.976 -5.402,3.399 -0.542,2.423 0.999,4.83 3.441,5.375 C -2.96,3.945 -0.541,2.423 0,0" /></g><g
           transform="translate(297.1992,534.6523)"
           id="g700"><path
             id="path702"
             style="fill:none;stroke:#65c8d0;stroke-width:1;stroke-linecap:butt;stroke-linejoin:miter;stroke-miterlimit:10;stroke-dasharray:none;stroke-opacity:1"
             d="m 0,0 c 0.542,-2.423 -0.999,-4.83 -3.441,-5.375 -2.442,-0.546 -4.861,0.976 -5.402,3.399 -0.542,2.423 0.999,4.83 3.441,5.375 C -2.96,3.945 -0.541,2.423 0,0 Z" /></g><path
           id="path704"
           style="fill:#65c8d0;fill-opacity:1;fill-rule:nonzero;stroke:#65c8d0;stroke-width:1;stroke-linecap:butt;stroke-linejoin:miter;stroke-miterlimit:10;stroke-dasharray:none;stroke-opacity:1"
           d="m 295.061,517.181 h -3.746 v 12.737 h 3.746 z" /><path
           id="path706"
           style="fill:#65c8d0;fill-opacity:1;fill-rule:nonzero;stroke:#65c8d0;stroke-width:1;stroke-linecap:butt;stroke-linejoin:miter;stroke-miterlimit:10;stroke-dasharray:none;stroke-opacity:1"
           d="m 305.857,517.112 h -3.747 v 12.737 h 3.747 z" /><path
           id="path708"
           style="fill:#65c8d0;fill-opacity:1;fill-rule:nonzero;stroke:#65c8d0;stroke-width:1;stroke-linecap:butt;stroke-linejoin:miter;stroke-miterlimit:10;stroke-dasharray:none;stroke-opacity:1"
           d="m 317.845,517.112 h -3.746 v 12.737 h 3.746 z" /><g
           transform="translate(329.6035,517.0488)"
           id="g710"><path
             id="path712"
             style="fill:#65c8d0;fill-opacity:1;fill-rule:nonzero;stroke:none"
             d="m 0,0 -3.744,0.134 0.456,12.729 3.744,-0.134 z" /></g><g
           transform="translate(329.6035,517.0488)"
           id="g714"><path
             id="path716"
             style="fill:none;stroke:#65c8d0;stroke-width:1;stroke-linecap:butt;stroke-linejoin:miter;stroke-miterlimit:10;stroke-dasharray:none;stroke-opacity:1"
             d="m 0,0 -3.744,0.134 0.456,12.729 3.744,-0.134 z" /></g><g
           transform="translate(308.8047,533.6196)"
           id="g718"><path
             id="path720"
             style="fill:#65c8d0;fill-opacity:1;fill-rule:nonzero;stroke:none"
             d="m 0,0 c 0,-2.483 -2.028,-4.496 -4.531,-4.496 -2.502,0 -4.531,2.013 -4.531,4.496 0,2.482 2.029,4.495 4.531,4.495 C -2.028,4.495 0,2.482 0,0" /></g><g
           transform="translate(320.3237,533.1348)"
           id="g722"><path
             id="path724"
             style="fill:#65c8d0;fill-opacity:1;fill-rule:nonzero;stroke:none"
             d="m 0,0 c 0,-2.482 -2.028,-4.495 -4.531,-4.495 -2.502,0 -4.531,2.013 -4.531,4.495 0,2.483 2.029,4.496 4.531,4.496 C -2.028,4.496 0,2.483 0,0" /></g><g
           transform="translate(332.3115,533.1348)"
           id="g726"><path
             id="path728"
             style="fill:#65c8d0;fill-opacity:1;fill-rule:nonzero;stroke:none"
             d="m 0,0 c 0,-2.482 -2.028,-4.495 -4.531,-4.495 -2.502,0 -4.531,2.013 -4.531,4.495 0,2.483 2.029,4.496 4.531,4.496 C -2.028,4.496 0,2.483 0,0" /></g><g
           transform="translate(529.5747,541.9062)"
           id="g730"><path
             id="path732"
             style="fill:none;stroke:#65c8d0;stroke-width:2;stroke-linecap:butt;stroke-linejoin:miter;stroke-miterlimit:10;stroke-dasharray:none;stroke-opacity:1"
             d="m 0,0 c 0,-6.207 -5.032,-11.239 -11.239,-11.239 -6.207,0 -11.239,5.032 -11.239,11.239 0,6.207 5.032,11.239 11.239,11.239 C -5.032,11.239 0,6.207 0,0 Z" /></g><g
           transform="translate(525.0791,541.9062)"
           id="g734"><path
             id="path736"
             style="fill:none;stroke:#65c8d0;stroke-width:2;stroke-linecap:butt;stroke-linejoin:miter;stroke-miterlimit:10;stroke-dasharray:none;stroke-opacity:1"
             d="m 0,0 c 0,-3.724 -3.019,-6.743 -6.743,-6.743 -3.724,0 -6.743,3.019 -6.743,6.743 0,3.724 3.019,6.743 6.743,6.743 C -3.019,6.743 0,3.724 0,0 Z" /></g><g
           transform="translate(520.0215,541.9062)"
           id="g738"><path
             id="path740"
             style="fill:#65c8d0;fill-opacity:1;fill-rule:nonzero;stroke:none"
             d="m 0,0 c 0,-0.931 -0.754,-1.686 -1.686,-1.686 -0.931,0 -1.686,0.755 -1.686,1.686 0,0.931 0.755,1.686 1.686,1.686 C -0.754,1.686 0,0.931 0,0" /></g><g
           transform="translate(520.0215,541.9062)"
           id="g742"><path
             id="path744"
             style="fill:none;stroke:#65c8d0;stroke-width:0.5;stroke-linecap:butt;stroke-linejoin:miter;stroke-miterlimit:10;stroke-dasharray:none;stroke-opacity:1"
             d="m 0,0 c 0,-0.931 -0.754,-1.686 -1.686,-1.686 -0.931,0 -1.686,0.755 -1.686,1.686 0,0.931 0.755,1.686 1.686,1.686 C -0.754,1.686 0,0.931 0,0 Z" /></g><g
           transform="translate(300.3052,553.894)"
           id="g746"><path
             id="path748"
             style="fill:none;stroke:#65c8d0;stroke-width:2;stroke-linecap:butt;stroke-linejoin:miter;stroke-miterlimit:10;stroke-dasharray:none;stroke-opacity:1"
             d="m 0,0 c 0,-3.724 -3.019,-6.743 -6.743,-6.743 -3.724,0 -6.743,3.019 -6.743,6.743 0,3.724 3.019,6.743 6.743,6.743 C -3.019,6.743 0,3.724 0,0 Z" /></g><g
           transform="translate(300.3052,553.894)"
           id="g750"><path
             id="path752"
             style="fill:none;stroke:#65c8d0;stroke-width:1;stroke-linecap:butt;stroke-linejoin:miter;stroke-miterlimit:10;stroke-dasharray:none;stroke-opacity:1"
             d="m 0,0 h 191.807 l 15.735,-7.493" /></g><g
           transform="translate(300.3052,558.3896)"
           id="g754"><path
             id="path756"
             style="fill:none;stroke:#65c8d0;stroke-width:1;stroke-linecap:butt;stroke-linejoin:miter;stroke-miterlimit:10;stroke-dasharray:none;stroke-opacity:1"
             d="M 0,0 H 191.807 L 209.04,-7.493" /></g><g
           transform="translate(300.3052,549.3984)"
           id="g758"><path
             id="path760"
             style="fill:none;stroke:#65c8d0;stroke-width:1;stroke-linecap:butt;stroke-linejoin:miter;stroke-miterlimit:10;stroke-dasharray:none;stroke-opacity:1"
             d="m 0,0 h 191.807 l 15.735,-7.492" /></g><g
           transform="translate(413.5625,579.7642)"
           id="g762"><path
             id="path764"
             style="fill:none;stroke:#65c8d0;stroke-width:2;stroke-linecap:butt;stroke-linejoin:miter;stroke-miterlimit:10;stroke-dasharray:none;stroke-opacity:1"
             d="m 0,0 c 4.485,0 8.121,-3.611 8.121,-8.065 0,-4.454 -3.636,-8.065 -8.121,-8.065 -4.485,0 -8.121,3.611 -8.121,8.065 C -8.121,-3.611 -4.485,0 0,0 Z" /></g><g
           transform="translate(363.2422,535.1631)"
           id="g766"><path
             id="path768"
             style="fill:none;stroke:#65c8d0;stroke-width:4;stroke-linecap:butt;stroke-linejoin:miter;stroke-miterlimit:10;stroke-dasharray:none;stroke-opacity:1"
             d="M 0,0 H 40.459 L 56.758,-49.163" /></g><g
           transform="translate(359.1587,541.7935)"
           id="g770"><path
             id="path772"
             style="fill:#65c8d0;fill-opacity:1;fill-rule:nonzero;stroke:none"
             d="m 0,0 c 3.083,0 5.582,-2.491 5.582,-5.563 0,-3.072 -2.499,-5.563 -5.582,-5.563 -3.083,0 -5.582,2.491 -5.582,5.563 C -5.582,-2.491 -3.083,0 0,0" /></g><g
           transform="translate(359.1587,541.7935)"
           id="g774"><path
             id="path776"
             style="fill:none;stroke:#65c8d0;stroke-width:1;stroke-linecap:butt;stroke-linejoin:miter;stroke-miterlimit:10;stroke-dasharray:none;stroke-opacity:1"
             d="m 0,0 c 3.083,0 5.582,-2.491 5.582,-5.563 0,-3.072 -2.499,-5.563 -5.582,-5.563 -3.083,0 -5.582,2.491 -5.582,5.563 C -5.582,-2.491 -3.083,0 0,0 Z" /></g><g
           transform="translate(422.9116,486.3418)"
           id="g778"><path
             id="path780"
             style="fill:none;stroke:#65c8d0;stroke-width:2;stroke-linecap:butt;stroke-linejoin:miter;stroke-miterlimit:10;stroke-dasharray:none;stroke-opacity:1"
             d="m 0,0 c 3.083,0 5.582,-2.491 5.582,-5.563 0,-3.072 -2.499,-5.563 -5.582,-5.563 -3.083,0 -5.582,2.491 -5.582,5.563 C -5.582,-2.491 -3.083,0 0,0 Z" /></g><g
           transform="translate(439.8618,565.8818)"
           id="g782"><path
             id="path784"
             style="fill:#65c8d0;fill-opacity:1;fill-rule:nonzero;stroke:none"
             d="m 0,0 h -7.886 c -1.133,0 -2.051,0.918 -2.051,2.051 v 7.886 c 0,1.133 0.918,2.051 2.051,2.051 H 0 c 1.133,0 2.051,-0.918 2.051,-2.051 V 2.051 C 2.051,0.918 1.133,0 0,0" /></g><g
           transform="translate(439.8618,565.8818)"
           id="g786"><path
             id="path788"
             style="fill:none;stroke:#65c8d0;stroke-width:1;stroke-linecap:butt;stroke-linejoin:miter;stroke-miterlimit:10;stroke-dasharray:none;stroke-opacity:1"
             d="m 0,0 h -7.886 c -1.133,0 -2.051,0.918 -2.051,2.051 v 7.886 c 0,1.133 0.918,2.051 2.051,2.051 H 0 c 1.133,0 2.051,-0.918 2.051,-2.051 V 2.051 C 2.051,0.918 1.133,0 0,0 Z" /></g><g
           transform="translate(472.8286,565.8818)"
           id="g790"><path
             id="path792"
             style="fill:#65c8d0;fill-opacity:1;fill-rule:nonzero;stroke:none"
             d="m 0,0 h -7.886 c -1.133,0 -2.051,0.918 -2.051,2.051 v 7.886 c 0,1.133 0.918,2.051 2.051,2.051 H 0 c 1.133,0 2.051,-0.918 2.051,-2.051 V 2.051 C 2.051,0.918 1.133,0 0,0" /></g><g
           transform="translate(472.8286,565.8818)"
           id="g794"><path
             id="path796"
             style="fill:none;stroke:#65c8d0;stroke-width:1;stroke-linecap:butt;stroke-linejoin:miter;stroke-miterlimit:10;stroke-dasharray:none;stroke-opacity:1"
             d="m 0,0 h -7.886 c -1.133,0 -2.051,0.918 -2.051,2.051 v 7.886 c 0,1.133 0.918,2.051 2.051,2.051 H 0 c 1.133,0 2.051,-0.918 2.051,-2.051 V 2.051 C 2.051,0.918 1.133,0 0,0 Z" /></g><g
           transform="translate(456.3452,565.8818)"
           id="g798"><path
             id="path800"
             style="fill:#65c8d0;fill-opacity:1;fill-rule:nonzero;stroke:none"
             d="m 0,0 h -7.886 c -1.133,0 -2.051,0.918 -2.051,2.051 v 7.886 c 0,1.133 0.918,2.051 2.051,2.051 H 0 c 1.133,0 2.051,-0.918 2.051,-2.051 V 2.051 C 2.051,0.918 1.133,0 0,0" /></g><g
           transform="translate(456.3452,565.8818)"
           id="g802"><path
             id="path804"
             style="fill:none;stroke:#65c8d0;stroke-width:1;stroke-linecap:butt;stroke-linejoin:miter;stroke-miterlimit:10;stroke-dasharray:none;stroke-opacity:1"
             d="m 0,0 h -7.886 c -1.133,0 -2.051,0.918 -2.051,2.051 v 7.886 c 0,1.133 0.918,2.051 2.051,2.051 H 0 c 1.133,0 2.051,-0.918 2.051,-2.051 V 2.051 C 2.051,0.918 1.133,0 0,0 Z" /></g><g
           transform="translate(489.312,565.8818)"
           id="g806"><path
             id="path808"
             style="fill:#65c8d0;fill-opacity:1;fill-rule:nonzero;stroke:none"
             d="m 0,0 h -7.886 c -1.133,0 -2.051,0.918 -2.051,2.051 v 7.886 c 0,1.133 0.918,2.051 2.051,2.051 H 0 c 1.133,0 2.051,-0.918 2.051,-2.051 V 2.051 C 2.051,0.918 1.133,0 0,0" /></g><g
           transform="translate(489.312,565.8818)"
           id="g810"><path
             id="path812"
             style="fill:none;stroke:#65c8d0;stroke-width:1;stroke-linecap:butt;stroke-linejoin:miter;stroke-miterlimit:10;stroke-dasharray:none;stroke-opacity:1"
             d="m 0,0 h -7.886 c -1.133,0 -2.051,0.918 -2.051,2.051 v 7.886 c 0,1.133 0.918,2.051 2.051,2.051 H 0 c 1.133,0 2.051,-0.918 2.051,-2.051 V 2.051 C 2.051,0.918 1.133,0 0,0 Z" /></g><g
           transform="translate(491.3628,571.6992)"
           id="g814"><path
             id="path816"
             style="fill:none;stroke:#65c8d0;stroke-width:4;stroke-linecap:butt;stroke-linejoin:miter;stroke-miterlimit:10;stroke-dasharray:none;stroke-opacity:1"
             d="m 0,0 21.729,-0.572 44.954,-35.964 h 109.39 l 17.982,26.973 h 95.903 l 11.988,16.483 8.991,-16.483 h 23.976" /></g><g
           transform="translate(122.0347,537.8604)"
           id="g818"><path
             id="path820"
             style="fill:#65c8d0;fill-opacity:1;fill-rule:nonzero;stroke:none"
             d="m 0,0 c 0,-3.104 -2.516,-5.619 -5.619,-5.619 -3.104,0 -5.62,2.515 -5.62,5.619 0,3.104 2.516,5.62 5.62,5.62 C -2.516,5.62 0,3.104 0,0" /></g><g
           transform="translate(122.0347,537.8604)"
           id="g822"><path
             id="path824"
             style="fill:none;stroke:#65c8d0;stroke-width:2;stroke-linecap:butt;stroke-linejoin:miter;stroke-miterlimit:10;stroke-dasharray:none;stroke-opacity:1"
             d="m 0,0 c 0,-3.104 -2.516,-5.619 -5.619,-5.619 -3.104,0 -5.62,2.515 -5.62,5.619 0,3.104 2.516,5.62 5.62,5.62 C -2.516,5.62 0,3.104 0,0 Z" /></g><g
           transform="translate(130.9761,552.3955)"
           id="g826"><path
             id="path828"
             style="fill:none;stroke:#65c8d0;stroke-width:2;stroke-linecap:butt;stroke-linejoin:miter;stroke-miterlimit:10;stroke-dasharray:none;stroke-opacity:1"
             d="m 0,0 c 0,-2.896 -2.348,-5.245 -5.245,-5.245 -2.897,0 -5.245,2.349 -5.245,5.245 0,2.896 2.348,5.245 5.245,5.245 C -2.348,5.245 0,2.896 0,0 Z" /></g><g
           transform="translate(435.9189,496.9512)"
           id="g830"><path
             id="path832"
             style="fill:none;stroke:#65c8d0;stroke-width:5;stroke-linecap:butt;stroke-linejoin:miter;stroke-miterlimit:10;stroke-dasharray:none;stroke-opacity:1"
             d="M 0,0 10.489,32.967 H 42.707" /></g><g
           transform="translate(441.6787,497.5059)"
           id="g834"><path
             id="path836"
             style="fill:#65c8d0;fill-opacity:1;fill-rule:nonzero;stroke:none"
             d="m 0,0 c 0,-3.104 -2.516,-5.619 -5.62,-5.619 -3.103,0 -5.619,2.515 -5.619,5.619 0,3.104 2.516,5.62 5.619,5.62 C -2.516,5.62 0,3.104 0,0" /></g><g
           transform="translate(441.6787,497.5059)"
           id="g838"><path
             id="path840"
             style="fill:none;stroke:#65c8d0;stroke-width:2;stroke-linecap:butt;stroke-linejoin:miter;stroke-miterlimit:10;stroke-dasharray:none;stroke-opacity:1"
             d="m 0,0 c 0,-3.104 -2.516,-5.619 -5.62,-5.619 -3.103,0 -5.619,2.515 -5.619,5.619 0,3.104 2.516,5.62 5.619,5.62 C -2.516,5.62 0,3.104 0,0 Z" /></g><g
           transform="translate(486.6333,530.4727)"
           id="g842"><path
             id="path844"
             style="fill:#65c8d0;fill-opacity:1;fill-rule:nonzero;stroke:none"
             d="m 0,0 c 0,-3.104 -2.516,-5.619 -5.619,-5.619 -3.104,0 -5.62,2.515 -5.62,5.619 0,3.104 2.516,5.62 5.62,5.62 C -2.516,5.62 0,3.104 0,0" /></g><g
           transform="translate(486.6333,530.4727)"
           id="g846"><path
             id="path848"
             style="fill:none;stroke:#65c8d0;stroke-width:2;stroke-linecap:butt;stroke-linejoin:miter;stroke-miterlimit:10;stroke-dasharray:none;stroke-opacity:1"
             d="m 0,0 c 0,-3.104 -2.516,-5.619 -5.619,-5.619 -3.104,0 -5.62,2.515 -5.62,5.619 0,3.104 2.516,5.62 5.62,5.62 C -2.516,5.62 0,3.104 0,0 Z" /></g><g
           transform="translate(136.9697,528.4199)"
           id="g850"><path
             id="path852"
             style="fill:none;stroke:#65c8d0;stroke-width:2;stroke-linecap:butt;stroke-linejoin:miter;stroke-miterlimit:10;stroke-dasharray:none;stroke-opacity:1"
             d="m 0,0 c 0,-2.897 -2.348,-5.245 -5.245,-5.245 -2.896,0 -5.244,2.348 -5.244,5.245 0,2.896 2.348,5.245 5.244,5.245 C -2.348,5.245 0,2.896 0,0 Z" /></g><g
           transform="translate(183.1562,557.3896)"
           id="g854"><path
             id="path856"
             style="fill:none;stroke:#65c8d0;stroke-width:2;stroke-linecap:butt;stroke-linejoin:miter;stroke-miterlimit:10;stroke-dasharray:none;stroke-opacity:1"
             d="m 0,0 h -8.696 c -1.133,0 -2.051,0.918 -2.051,2.051 v 8.696 c 0,1.133 0.918,2.051 2.051,2.051 H 0 c 1.133,0 2.051,-0.918 2.051,-2.051 V 2.051 C 2.051,0.918 1.133,0 0,0 Z" /></g><g
           transform="translate(218.3516,557.3896)"
           id="g858"><path
             id="path860"
             style="fill:none;stroke:#65c8d0;stroke-width:2;stroke-linecap:butt;stroke-linejoin:miter;stroke-miterlimit:10;stroke-dasharray:none;stroke-opacity:1"
             d="m 0,0 h -8.696 c -1.133,0 -2.051,0.918 -2.051,2.051 v 8.696 c 0,1.133 0.918,2.051 2.051,2.051 H 0 c 1.133,0 2.051,-0.918 2.051,-2.051 V 2.051 C 2.051,0.918 1.133,0 0,0 Z" /></g><g
           transform="translate(200.7539,557.3896)"
           id="g862"><path
             id="path864"
             style="fill:none;stroke:#65c8d0;stroke-width:2;stroke-linecap:butt;stroke-linejoin:miter;stroke-miterlimit:10;stroke-dasharray:none;stroke-opacity:1"
             d="m 0,0 h -8.696 c -1.133,0 -2.051,0.918 -2.051,2.051 v 8.696 c 0,1.133 0.918,2.051 2.051,2.051 H 0 c 1.133,0 2.051,-0.918 2.051,-2.051 V 2.051 C 2.051,0.918 1.133,0 0,0 Z" /></g><g
           transform="translate(235.9487,557.3896)"
           id="g866"><path
             id="path868"
             style="fill:none;stroke:#65c8d0;stroke-width:2;stroke-linecap:butt;stroke-linejoin:miter;stroke-miterlimit:10;stroke-dasharray:none;stroke-opacity:1"
             d="m 0,0 h -8.696 c -1.133,0 -2.051,0.918 -2.051,2.051 v 8.696 c 0,1.133 0.918,2.051 2.051,2.051 H 0 c 1.133,0 2.051,-0.918 2.051,-2.051 V 2.051 C 2.051,0.918 1.133,0 0,0 Z" /></g><g
           transform="translate(165.5591,557.3896)"
           id="g870"><path
             id="path872"
             style="fill:none;stroke:#65c8d0;stroke-width:2;stroke-linecap:butt;stroke-linejoin:miter;stroke-miterlimit:10;stroke-dasharray:none;stroke-opacity:1"
             d="m 0,0 h -8.696 c -1.133,0 -2.051,0.918 -2.051,2.051 v 8.696 c 0,1.133 0.918,2.051 2.051,2.051 H 0 c 1.133,0 2.051,-0.918 2.051,-2.051 V 2.051 C 2.051,0.918 1.133,0 0,0 Z" /></g><g
           transform="translate(147.9614,557.3896)"
           id="g874"><path
             id="path876"
             style="fill:none;stroke:#65c8d0;stroke-width:2;stroke-linecap:butt;stroke-linejoin:miter;stroke-miterlimit:10;stroke-dasharray:none;stroke-opacity:1"
             d="m 0,0 h -8.696 c -1.133,0 -2.051,0.918 -2.051,2.051 v 8.696 c 0,1.133 0.918,2.051 2.051,2.051 H 0 c 1.133,0 2.051,-0.918 2.051,-2.051 V 2.051 C 2.051,0.918 1.133,0 0,0 Z" /></g><g
           transform="translate(546.5,569.5)"
           id="g878"><path
             id="path880"
             style="fill:none;stroke:#65c8d0;stroke-width:3;stroke-linecap:butt;stroke-linejoin:miter;stroke-miterlimit:10;stroke-dasharray:none;stroke-opacity:1"
             d="m 0,0 20.537,-17.854 h 88.411" /></g><g
           transform="translate(541.9229,578.2954)"
           id="g882"><path
             id="path884"
             style="fill:none;stroke:#65c8d0;stroke-width:2;stroke-linecap:butt;stroke-linejoin:miter;stroke-miterlimit:10;stroke-dasharray:none;stroke-opacity:1"
             d="m 0,0 c 3.083,0 5.582,-2.491 5.582,-5.563 0,-3.072 -2.499,-5.563 -5.582,-5.563 -3.083,0 -5.582,2.491 -5.582,5.563 C -5.582,-2.491 -3.083,0 0,0 Z" /></g><g
           transform="translate(657.7178,557.123)"
           id="g886"><path
             id="path888"
             style="fill:#65c8d0;fill-opacity:1;fill-rule:nonzero;stroke:none"
             d="m 0,0 c 3.083,0 5.582,-2.49 5.582,-5.563 0,-3.072 -2.499,-5.562 -5.582,-5.562 -3.083,0 -5.582,2.49 -5.582,5.562 C -5.582,-2.49 -3.083,0 0,0" /></g><g
           transform="translate(657.7178,557.123)"
           id="g890"><path
             id="path892"
             style="fill:none;stroke:#65c8d0;stroke-width:0.75;stroke-linecap:butt;stroke-linejoin:miter;stroke-miterlimit:10;stroke-dasharray:none;stroke-opacity:1"
             d="m 0,0 c 3.083,0 5.582,-2.49 5.582,-5.563 0,-3.072 -2.499,-5.562 -5.582,-5.562 -3.083,0 -5.582,2.49 -5.582,5.562 C -5.582,-2.49 -3.083,0 0,0 Z" /></g><g
           transform="translate(800.8018,541.9062)"
           id="g894"><path
             id="path896"
             style="fill:#65c8d0;fill-opacity:1;fill-rule:nonzero;stroke:none"
             d="m 0,0 c 0,-3.724 -3.02,-6.743 -6.743,-6.743 -3.725,0 -6.743,3.019 -6.743,6.743 0,3.724 3.018,6.743 6.743,6.743 C -3.02,6.743 0,3.724 0,0" /></g><g
           transform="translate(800.8018,541.9062)"
           id="g898"><path
             id="path900"
             style="fill:none;stroke:#65c8d0;stroke-width:2;stroke-linecap:butt;stroke-linejoin:miter;stroke-miterlimit:10;stroke-dasharray:none;stroke-opacity:1"
             d="m 0,0 c 0,-3.724 -3.02,-6.743 -6.743,-6.743 -3.725,0 -6.743,3.019 -6.743,6.743 0,3.724 3.018,6.743 6.743,6.743 C -3.02,6.743 0,3.724 0,0 Z" /></g><g
           transform="translate(802.2998,541.9062)"
           id="g902"><path
             id="path904"
             style="fill:none;stroke:#65c8d0;stroke-width:1;stroke-linecap:butt;stroke-linejoin:miter;stroke-miterlimit:10;stroke-dasharray:none;stroke-opacity:1"
             d="M 0,0 H 113.886" /></g><g
           transform="translate(799.3066,547.0225)"
           id="g906"><path
             id="path908"
             style="fill:none;stroke:#65c8d0;stroke-width:1;stroke-linecap:butt;stroke-linejoin:miter;stroke-miterlimit:10;stroke-dasharray:none;stroke-opacity:1"
             d="M 0,0 118.374,-1.242" /></g><g
           transform="translate(799.3027,537.4106)"
           id="g910"><path
             id="path912"
             style="fill:none;stroke:#65c8d0;stroke-width:1;stroke-linecap:butt;stroke-linejoin:miter;stroke-miterlimit:10;stroke-dasharray:none;stroke-opacity:1"
             d="M 0,0 H 119.88" /></g><g
           transform="translate(940.1611,541.4658)"
           id="g914"><path
             id="path916"
             style="fill:none;stroke:#65c8d0;stroke-width:2;stroke-linecap:butt;stroke-linejoin:miter;stroke-miterlimit:10;stroke-dasharray:none;stroke-opacity:1"
             d="m 0,0 c 0,-6.207 -5.032,-11.239 -11.239,-11.239 -6.206,0 -11.239,5.032 -11.239,11.239 0,6.207 5.033,11.238 11.239,11.238 C -5.032,11.238 0,6.207 0,0 Z" /></g><g
           transform="translate(935.665,541.4658)"
           id="g918"><path
             id="path920"
             style="fill:none;stroke:#65c8d0;stroke-width:2;stroke-linecap:butt;stroke-linejoin:miter;stroke-miterlimit:10;stroke-dasharray:none;stroke-opacity:1"
             d="m 0,0 c 0,-3.725 -3.019,-6.744 -6.743,-6.744 -3.724,0 -6.743,3.019 -6.743,6.744 0,3.724 3.019,6.743 6.743,6.743 C -3.019,6.743 0,3.724 0,0 Z" /></g><g
           transform="translate(930.6084,541.4658)"
           id="g922"><path
             id="path924"
             style="fill:#65c8d0;fill-opacity:1;fill-rule:nonzero;stroke:none"
             d="m 0,0 c 0,-0.931 -0.755,-1.686 -1.687,-1.686 -0.93,0 -1.685,0.755 -1.685,1.686 0,0.931 0.755,1.686 1.685,1.686 C -0.755,1.686 0,0.931 0,0" /></g><g
           transform="translate(930.6084,541.4658)"
           id="g926"><path
             id="path928"
             style="fill:none;stroke:#65c8d0;stroke-width:0.5;stroke-linecap:butt;stroke-linejoin:miter;stroke-miterlimit:10;stroke-dasharray:none;stroke-opacity:1"
             d="m 0,0 c 0,-0.931 -0.755,-1.686 -1.687,-1.686 -0.93,0 -1.685,0.755 -1.685,1.686 0,0.931 0.755,1.686 1.685,1.686 C -0.755,1.686 0,0.931 0,0 Z" /></g><g
           transform="translate(870.6777,556.1416)"
           id="g930"><path
             id="path932"
             style="fill:none;stroke:#65c8d0;stroke-width:2;stroke-linecap:butt;stroke-linejoin:miter;stroke-miterlimit:10;stroke-dasharray:none;stroke-opacity:1"
             d="m 0,0 h -7.886 c -1.133,0 -2.051,0.918 -2.051,2.051 v 7.886 c 0,1.133 0.918,2.051 2.051,2.051 H 0 c 1.133,0 2.052,-0.918 2.052,-2.051 V 2.051 C 2.052,0.918 1.133,0 0,0 Z" /></g><g
           transform="translate(886.1387,556.1416)"
           id="g934"><path
             id="path936"
             style="fill:none;stroke:#65c8d0;stroke-width:2;stroke-linecap:butt;stroke-linejoin:miter;stroke-miterlimit:10;stroke-dasharray:none;stroke-opacity:1"
             d="m 0,0 h -5.841 c -1.697,0 -3.073,1.376 -3.073,3.074 v 5.841 c 0,1.697 1.376,3.073 3.073,3.073 H 0 c 1.697,0 3.074,-1.376 3.074,-3.073 V 3.074 C 3.074,1.376 1.697,0 0,0 Z" /></g><g
           transform="translate(854.1943,556.1416)"
           id="g938"><path
             id="path940"
             style="fill:none;stroke:#65c8d0;stroke-width:2;stroke-linecap:butt;stroke-linejoin:miter;stroke-miterlimit:10;stroke-dasharray:none;stroke-opacity:1"
             d="m 0,0 h -7.886 c -1.133,0 -2.051,0.918 -2.051,2.051 v 7.886 c 0,1.133 0.918,2.051 2.051,2.051 H 0 c 1.133,0 2.052,-0.918 2.052,-2.051 V 2.051 C 2.052,0.918 1.133,0 0,0 Z" /></g><g
           transform="translate(837.7109,556.1416)"
           id="g942"><path
             id="path944"
             style="fill:none;stroke:#65c8d0;stroke-width:2;stroke-linecap:butt;stroke-linejoin:miter;stroke-miterlimit:10;stroke-dasharray:none;stroke-opacity:1"
             d="m 0,0 h -7.886 c -1.133,0 -2.051,0.918 -2.051,2.051 v 7.886 c 0,1.133 0.918,2.051 2.051,2.051 H 0 c 1.133,0 2.052,-0.918 2.052,-2.051 V 2.051 C 2.052,0.918 1.133,0 0,0 Z" /></g><g
           transform="translate(889.2129,562.1357)"
           id="g946"><path
             id="path948"
             style="fill:none;stroke:#65c8d0;stroke-width:3;stroke-linecap:butt;stroke-linejoin:miter;stroke-miterlimit:10;stroke-dasharray:none;stroke-opacity:1"
             d="M 0,0 H 67.432 L 80.918,-26.973 94.404,0 104.894,-26.973 116.882,0 125.873,-26.973 139.359,0 l 8.992,-26.973 44.954,-0.749" /></g><g
           transform="translate(1070.5303,555.3926)"
           id="g950"><path
             id="path952"
             style="fill:none;stroke:#65c8d0;stroke-width:3;stroke-linecap:butt;stroke-linejoin:miter;stroke-miterlimit:10;stroke-dasharray:none;stroke-opacity:1"
             d="M 0,0 59.809,-0.564 77.921,-29.221" /></g><g
           transform="translate(1069.6885,554.6597)"
           id="g954"><path
             id="path956"
             style="fill:none;stroke:#65c8d0;stroke-width:3;stroke-linecap:butt;stroke-linejoin:miter;stroke-miterlimit:10;stroke-dasharray:none;stroke-opacity:1"
             d="m 0,0 c 0,-5.596 -4.515,-10.132 -10.084,-10.132 -5.568,0 -10.083,4.536 -10.083,10.132 0,5.596 4.515,10.132 10.083,10.132 C -4.515,10.132 0,5.596 0,0 Z" /></g><g
           transform="translate(1164.6143,518.0571)"
           id="g958"><path
             id="path960"
             style="fill:none;stroke:#65c8d0;stroke-width:3;stroke-linecap:butt;stroke-linejoin:miter;stroke-miterlimit:10;stroke-dasharray:none;stroke-opacity:1"
             d="m 0,0 c 0,-5.596 -4.515,-10.132 -10.083,-10.132 -5.569,0 -10.084,4.536 -10.084,10.132 0,5.596 4.515,10.133 10.084,10.133 C -4.515,10.133 0,5.596 0,0 Z" /></g><path
           id="path962"
           style="fill:#ffffff;fill-opacity:1;fill-rule:nonzero;stroke:none"
           d="m 541.562,475.223 h -41.958 v 4.496 h 41.958 z" /><path
           id="path964"
           style="fill:#ffffff;fill-opacity:1;fill-rule:nonzero;stroke:none"
           d="m 541.562,497.701 h -41.958 v 4.496 h 41.958 z" /><path
           id="path966"
           style="fill:#ffffff;fill-opacity:1;fill-rule:nonzero;stroke:none"
           d="m 538.565,431.767 h -41.958 v 4.496 h 41.958 z" /><path
           id="path968"
           style="fill:#ffffff;fill-opacity:1;fill-rule:nonzero;stroke:none"
           d="m 541.562,409.29 h -41.958 v 4.496 h 41.958 z" /><g
           transform="translate(1093.6143,534.0708)"
           id="g970"><path
             id="path972"
             style="fill:none;stroke:#65c8d0;stroke-width:3;stroke-linecap:butt;stroke-linejoin:miter;stroke-miterlimit:10;stroke-dasharray:none;stroke-opacity:1"
             d="m 0,0 c 0,-3.56 -2.744,-6.446 -6.129,-6.446 -3.386,0 -6.13,2.886 -6.13,6.446 0,3.56 2.744,6.446 6.13,6.446 C -2.744,6.446 0,3.56 0,0 Z" /></g><g
           transform="translate(1173.1768,547.8999)"
           id="g974"><path
             id="path976"
             style="fill:none;stroke:#65c8d0;stroke-width:3;stroke-linecap:butt;stroke-linejoin:miter;stroke-miterlimit:10;stroke-dasharray:none;stroke-opacity:1"
             d="M 0,0 H 52.447 V -140.109" /></g><g
           transform="translate(1176.1738,547.7705)"
           id="g978"><path
             id="path980"
             style="fill:#65c8d0;fill-opacity:1;fill-rule:nonzero;stroke:none"
             d="m 0,0 c 0,-3.382 -2.627,-6.124 -5.868,-6.124 -3.241,0 -5.868,2.742 -5.868,6.124 0,3.382 2.627,6.124 5.868,6.124 C -2.627,6.124 0,3.382 0,0" /></g><g
           transform="translate(1176.1738,547.7705)"
           id="g982"><path
             id="path984"
             style="fill:none;stroke:#65c8d0;stroke-width:3;stroke-linecap:butt;stroke-linejoin:miter;stroke-miterlimit:10;stroke-dasharray:none;stroke-opacity:1"
             d="m 0,0 c 0,-3.382 -2.627,-6.124 -5.868,-6.124 -3.241,0 -5.868,2.742 -5.868,6.124 0,3.382 2.627,6.124 5.868,6.124 C -2.627,6.124 0,3.382 0,0 Z" /></g><g
           transform="translate(1233,400.9771)"
           id="g986"><path
             id="path988"
             style="fill:none;stroke:#65c8d0;stroke-width:3;stroke-linecap:butt;stroke-linejoin:miter;stroke-miterlimit:10;stroke-dasharray:none;stroke-opacity:1"
             d="m 0,0 c 0,-4.099 -3.328,-7.421 -7.435,-7.421 -4.105,0 -7.434,3.322 -7.434,7.421 0,4.099 3.329,7.422 7.434,7.422 C -3.328,7.422 0,4.099 0,0 Z" /></g><g
           transform="translate(730.0781,476.8271)"
           id="g990"><path
             id="path992"
             style="fill:#65c8d0;fill-opacity:1;fill-rule:nonzero;stroke:none"
             d="m 0,0 16.656,3.173 c 14.345,-13.548 0.797,-36.658 0.797,-36.658 L 3.109,-35.079 c 7.666,19.165 -2.362,33.898 -3.136,34.992 l -4.756,-15.629 c 1.389,-2.58 3.665,-8.971 0.72,-20.159 l -11.954,-0.797 c 0,0 4.782,2.39 10.36,22.313 0,0 0.305,-0.359 0.716,-1.074 M 61.805,-65.077 29.286,25.138 C 26.289,33.08 25.239,36.977 24.19,41.323 h -39.113 c -0.749,-4.346 -2.098,-8.842 -4.795,-16.185 l -32.369,-90.215 c -3.597,-10.19 -4.946,-13.787 -7.193,-18.282 h 35.066 c 0.75,5.544 1.799,10.19 3.747,16.184 l 3.75,11.809 c -2.394,2.655 -4.803,5.879 -7.209,9.766 l 60.362,5.249 c 0,0 -3.321,-7.184 -10.014,-13.976 l -0.133,-0.11 4.046,-12.738 c 1.499,-5.095 2.397,-8.991 3.597,-16.184 h 35.066 c -1.947,4.196 -4.346,10.339 -7.193,18.282" /></g><g
           transform="translate(730.0781,476.8271)"
           id="g994"><path
             id="path996"
             style="fill:none;stroke:#65c8d0;stroke-width:1;stroke-linecap:butt;stroke-linejoin:miter;stroke-miterlimit:10;stroke-dasharray:none;stroke-opacity:1"
             d="m 0,0 16.656,3.173 c 14.345,-13.548 0.797,-36.658 0.797,-36.658 L 3.109,-35.079 c 7.666,19.165 -2.362,33.898 -3.136,34.992 l -4.756,-15.629 c 1.389,-2.58 3.665,-8.971 0.72,-20.159 l -11.954,-0.797 c 0,0 4.782,2.39 10.36,22.313 0,0 0.305,-0.359 0.716,-1.074 M 61.805,-65.077 29.286,25.138 C 26.289,33.08 25.239,36.977 24.19,41.323 h -39.113 c -0.749,-4.346 -2.098,-8.842 -4.795,-16.185 l -32.369,-90.215 c -3.597,-10.19 -4.946,-13.787 -7.193,-18.282 h 35.066 c 0.75,5.544 1.799,10.19 3.747,16.184 l 3.75,11.809 c -2.394,2.655 -4.803,5.879 -7.209,9.766 l 60.362,5.249 c 0,0 -3.321,-7.184 -10.014,-13.976 l -0.133,-0.11 4.046,-12.738 c 1.499,-5.095 2.397,-8.991 3.597,-16.184 h 35.066 c -1.947,4.196 -4.346,10.339 -7.193,18.282 z" /></g><g
           transform="translate(878.3447,518.1499)"
           id="g998"><path
             id="path1000"
             style="fill:#65c8d0;fill-opacity:1;fill-rule:nonzero;stroke:none"
             d="m 0,0 h -65.638 c -9.141,0 -17.383,0.449 -22.329,1.049 v -3.834 c 1.561,0.669 3.286,1.049 5.107,1.049 6.912,0 12.515,-5.359 12.515,-11.97 0,-6.611 -5.603,-11.97 -12.515,-11.97 -1.821,0 -3.546,0.38 -5.107,1.049 v -2.947 c 10.64,0.899 13.188,1.049 22.629,1.049 h 17.684 v -75.529 c 0,-9.441 -0.3,-15.585 -1.2,-22.628 h 33.119 c -0.899,7.043 -1.2,13.637 -1.2,22.628 v 75.529 H 0 c 10.79,0 16.634,-0.3 23.378,-1.049 V 1.049 C 16.484,0.299 10.49,0 0,0" /></g><g
           transform="translate(878.3447,518.1499)"
           id="g1002"><path
             id="path1004"
             style="fill:none;stroke:#65c8d0;stroke-width:1;stroke-linecap:butt;stroke-linejoin:miter;stroke-miterlimit:10;stroke-dasharray:none;stroke-opacity:1"
             d="m 0,0 h -65.638 c -9.141,0 -17.383,0.449 -22.329,1.049 v -3.834 c 1.561,0.669 3.286,1.049 5.107,1.049 6.912,0 12.515,-5.359 12.515,-11.97 0,-6.611 -5.603,-11.97 -12.515,-11.97 -1.821,0 -3.546,0.38 -5.107,1.049 v -2.947 c 10.64,0.899 13.188,1.049 22.629,1.049 h 17.684 v -75.529 c 0,-9.441 -0.3,-15.585 -1.2,-22.628 h 33.119 c -0.899,7.043 -1.2,13.637 -1.2,22.628 v 75.529 H 0 c 10.79,0 16.634,-0.3 23.378,-1.049 V 1.049 C 16.484,0.299 10.49,0 0,0 Z" /></g></g></g></g></svg>
